<svg xmlns="http://www.w3.org/2000/svg" viewBox="0 0 75.41 74"><defs><style>.cls-1{fill:#fff;}</style></defs><title>Recurso 15MUESTRA</title><g id="Capa_2" data-name="Capa 2"><g id="HOME_copia" data-name="HOME copia"><path class="cls-1" d="M4.7,37.66,37.81,12.9l32.84,25,4.76-6.24L37.86,3.06,13.81,21V13.14H4.45V28L0,31.37Zm2-22.3h4.9v7.35l-4.9,3.66ZM37.85,5.85,72.29,32.11l-2.06,2.7L37.83,10.11,5.15,34.55l-2-2.72,5.55-4.15,5.14-3.85h0Z"/><path class="cls-1" d="M26.05,74h23V37.93h-23V74Zm2.23-33.85H46.83V71.77H28.28V40.16Z"/><rect class="cls-1" x="13.81" y="32.44" width="47.5" height="2.23"/><rect class="cls-1" x="22.71" y="25.75" width="29.69" height="2.23"/><rect class="cls-1" x="31.69" y="19.07" width="11.88" height="2.23"/><rect class="cls-1" x="30.65" y="56.93" width="2.23" height="2.23"/><rect class="cls-1" x="10.47" width="2.23" height="2.23"/><rect class="cls-1" x="10.47" y="8.91" width="2.23" height="2.23"/><rect class="cls-1" x="10.47" y="4.45" width="2.23" height="2.23"/><rect class="cls-1" x="5.42" y="8.91" width="2.23" height="2.23"/><rect class="cls-1" x="5.42" y="4.45" width="2.23" height="2.23"/><path class="cls-1" d="M2.75,43.5a5.57,5.57,0,0,0,5.57,5.57H24.2V46.84H12.76a5.55,5.55,0,0,0,0-6.68H24.2V37.93H8.31A5.57,5.57,0,0,0,2.75,43.5Zm8.91,0a3.34,3.34,0,1,1-3.34-3.34A3.34,3.34,0,0,1,11.65,43.5Z"/><path class="cls-1" d="M66.8,37.93H50.92v2.23H62.35a5.55,5.55,0,0,0,0,6.68H50.92v2.23H66.8a5.57,5.57,0,1,0,0-11.13Zm0,8.91a3.34,3.34,0,1,1,3.34-3.34A3.34,3.34,0,0,1,66.8,46.84Z"/><path class="cls-1" d="M2.75,56a5.57,5.57,0,0,0,5.57,5.57H24.2V59.3H12.76a5.55,5.55,0,0,0,0-6.68H24.2V50.4H8.31A5.57,5.57,0,0,0,2.75,56Zm8.91,0a3.34,3.34,0,1,1-3.34-3.34A3.34,3.34,0,0,1,11.65,56Z"/><path class="cls-1" d="M66.8,50.4H50.92v2.23H62.35a5.55,5.55,0,0,0,0,6.68H50.92v2.23H66.8a5.57,5.57,0,1,0,0-11.13Zm0,8.91A3.34,3.34,0,1,1,70.14,56,3.34,3.34,0,0,1,66.8,59.3Z"/><path class="cls-1" d="M2.75,68.43A5.57,5.57,0,0,0,8.31,74H24.2V71.77H12.76a5.55,5.55,0,0,0,0-6.68H24.2V62.87H8.31A5.57,5.57,0,0,0,2.75,68.43Zm8.91,0a3.34,3.34,0,1,1-3.34-3.34A3.34,3.34,0,0,1,11.65,68.43Z"/><path class="cls-1" d="M66.8,62.87H50.92v2.23H62.35a5.55,5.55,0,0,0,0,6.68H50.92V74H66.8a5.57,5.57,0,1,0,0-11.13Zm0,8.91a3.34,3.34,0,1,1,3.34-3.34A3.34,3.34,0,0,1,66.8,71.77Z"/></g></g></svg>