<svg xmlns="http://www.w3.org/2000/svg" viewBox="0 0 156.74 102.96"><defs><style>.cls-1,.cls-17{fill:#fff;}.cls-2{fill:#80cbf2;}.cls-10,.cls-11,.cls-12,.cls-13,.cls-14,.cls-15,.cls-16,.cls-17,.cls-2,.cls-3,.cls-4,.cls-5,.cls-6,.cls-7,.cls-8,.cls-9{fill-rule:evenodd;}.cls-3{fill:#00a3dd;}.cls-4{fill:#0075b8;}.cls-5{fill:#aa84b3;}.cls-6{fill:#743b8c;}.cls-7{fill:#372c65;}.cls-8{fill:#ee9abd;}.cls-9{fill:#c22a75;}.cls-10{fill:#f1ae88;}.cls-11{fill:#ce2c1e;}.cls-12{fill:#aece93;}.cls-13{fill:#176633;}.cls-14{fill:#39a338;}.cls-15{fill:#e54e23;}.cls-16{fill:#e5007e;}</style></defs><title>Recurso 19MUESTRA</title><g id="Capa_2" data-name="Capa 2"><g id="HOME_copia" data-name="HOME copia"><path class="cls-1" d="M102.57,17a1.51,1.51,0,0,0-2.1-.5,2.1,2.1,0,0,0-.83,1.37,6.6,6.6,0,0,0-2.06-3.36,1.51,1.51,0,0,0-2.36.58,18.27,18.27,0,0,0-.53,2.58,13.51,13.51,0,0,1-1.53,3.5l-.12.18a14.72,14.72,0,0,0-3-17.1A15.51,15.51,0,0,0,79.59,0c-1.15,0-3.87-.16-4.38,1.21-.37,1,.25,1.64,1.06,2.14a7,7,0,0,0-3.9.92,1.57,1.57,0,0,0,0,2.52c.94.75,2.12,1.17,3.07,1.94a13.88,13.88,0,0,1,2.33,2.43c.12.16.23.33.34.49a14.67,14.67,0,0,0-17-3.93,15.49,15.49,0,0,0-8.28,9c-.45,1.26-1.57,4-.2,5,.92.65,1.74.16,2.47-.55-.59,2.52-1,6.22,1.68,5.09.78-.33,1.37-1.28,2-1.81a13.9,13.9,0,0,1,3.05-1.85l.23-.09a14.65,14.65,0,0,0-7.4,14.63,15.44,15.44,0,0,0,5.76,10.1c1,.77,2.69,2.28,4.05,1.79s1.09-1.58.62-2.64c2.18,1.43,5.52,3.1,5.35.14a12.1,12.1,0,0,0-1-2.67A13.78,13.78,0,0,1,68.77,40a13.51,13.51,0,0,1,.13-2.32A14.74,14.74,0,0,0,81,52.06a15.44,15.44,0,0,0,11.14-2.32c1.11-.74,3.3-2.07,3.3-3.56s-1.14-1.57-2.3-1.44c1.89-1.5,4.13-3.81,2-4.92a2.52,2.52,0,0,0-1.68-.07,13.85,13.85,0,0,1-4.22,0l-.41-.08a14.69,14.69,0,0,0,15.8-14.23C104.75,22.71,104.22,19.24,102.57,17Z"/><path class="cls-2" d="M78.16,25a13.31,13.31,0,0,0-8.64-3.16A13.46,13.46,0,0,0,64,47.62a14.14,14.14,0,0,1-2-7.14,11.6,11.6,0,0,1-1.14-5A11.78,11.78,0,0,1,72.64,23.69,11.52,11.52,0,0,1,77.93,25l-.32.09Z"/><path class="cls-3" d="M77.93,25l-.32.09c-8.7.73-15.54,7.23-15.66,15.16v.23a.08.08,0,0,1,0,0,11.88,11.88,0,0,0,7,6.2,15.18,15.18,0,0,1,9-21.73ZM62,40.21v0Z"/><path class="cls-4" d="M77.93,25a11.52,11.52,0,0,0-5.3-1.27A11.78,11.78,0,0,0,60.85,35.48a11.6,11.6,0,0,0,1.14,5s0-.07,0-.11c0-8,6.89-14.59,15.66-15.32Z"/><path class="cls-5" d="M76.28,26.14a13.47,13.47,0,1,0,17.64,20,13.91,13.91,0,0,1-7.41-.07,11.78,11.78,0,0,1-13-15,12.13,12.13,0,0,1,2.7-4.75v.34A4.66,4.66,0,0,0,76.28,26.14Z"/><path class="cls-6" d="M76.16,26.35v.34A18.53,18.53,0,0,0,75.78,30v1.14c.2,6.93,4.27,13,10.61,14.91a.25.25,0,0,1,.11,0,11.86,11.86,0,0,0,7.93-5,14.79,14.79,0,0,1-7.43-.3A15.16,15.16,0,0,1,76.16,26.35ZM86.5,46.1l-.57.07.57-.07Z"/><path class="cls-7" d="M76.16,26.35a12.13,12.13,0,0,0-2.7,4.75,11.78,11.78,0,0,0,13,15,.2.2,0,0,0-.11,0c-7.68-2.3-12-10.75-10.23-19.39Z"/><path class="cls-8" d="M76.78,28.35a13.46,13.46,0,1,0,24.48-10.59,13.94,13.94,0,0,1-2.36,7,11.77,11.77,0,0,1-22,3.75,1.28,1.28,0,0,0,.32.09Z"/><path class="cls-9" d="M76.94,28.53a11.77,11.77,0,0,0,22-3.75l-.07.09C94.3,31.48,84.91,33,77.25,28.62A1.28,1.28,0,0,1,76.94,28.53Z"/><path class="cls-10" d="M79,28.39A13.46,13.46,0,1,0,76.62,1.83a14.15,14.15,0,0,1,5.93,4.43A12.13,12.13,0,0,1,86.46,9.6a11.78,11.78,0,0,1-2.27,16.5,11.59,11.59,0,0,1-5,2.2,1.91,1.91,0,0,0,.18-.27Z"/><path class="cls-11" d="M79.18,28.3a11.59,11.59,0,0,0,5-2.2A11.78,11.78,0,0,0,86.46,9.6a12.13,12.13,0,0,0-3.91-3.34l.07.11c4.84,6.36,3.32,15.77-3.25,21.66A1.91,1.91,0,0,1,79.18,28.3Z"/><path class="cls-12" d="M79.59,26.1a13.46,13.46,0,1,0-26.07-5.61,14.08,14.08,0,0,1,6-4.34,11.79,11.79,0,0,1,20,9.73l-.2-.27Z"/><path class="cls-13" d="M79.57,25.87a11.91,11.91,0,0,0-.64-5.45,11.76,11.76,0,0,0-19.41-4.27s.09,0,.11,0c7.52-2.73,16,1.48,19.73,9.5Z"/><path class="cls-14" d="M79.25,25.35l.33.43c-.06-.1-.13-.17-.19-.27-3.64-7.94-12.08-12.17-19.57-9.58l-.08,0,0,0,0,0-.07,0-.06,0a.08.08,0,0,1,0,0,11.88,11.88,0,0,0-3.46,8.69v.11a15,15,0,0,1,3.64-3,14.4,14.4,0,0,1,2.52-1.2,15.12,15.12,0,0,1,17.29,5.2l-.2-.27Z"/><path class="cls-15" d="M79.31,28.12l.08-.11,0,0Zm4.28-20.3-.15-.26-.08-.12c-.2-.33-.41-.65-.64-1l-.1-.13,0,0,.21.11.25.14a2.43,2.43,0,0,1-.25-.16l-.25-.14v0h0a11.88,11.88,0,0,0-9.32-.74l.07,0h0a15.26,15.26,0,0,1,5.48,4.25l.31.38a15.14,15.14,0,0,1,.14,18.06c.08-.09.12-.18.2-.26l.13-.12-.08.13a19.78,19.78,0,0,0,3.41-4,17.3,17.3,0,0,0,2.66-8.64V14.6A14.21,14.21,0,0,0,83.59,7.82Z"/><path class="cls-16" d="M77.2,28.61l-.26-.08A1.08,1.08,0,0,0,77.2,28.61ZM96.65,15.66v.08l0,0a15.29,15.29,0,0,1-7.88,11.73l-.08,0-.3.15-.27.14-.13.06a15.15,15.15,0,0,1-11,.7l.26.09h0l.08,0h0c6.19,3.54,13.51,3.21,18.47-.53h0l.26-.2A13.84,13.84,0,0,0,98.78,25l.09-.13h0c0,.07,0,.15,0,.22a1.57,1.57,0,0,0,0,.3,1.14,1.14,0,0,1,0-.27,1.49,1.49,0,0,0,0-.25l0,0a.08.08,0,0,1,0-.05A11.88,11.88,0,0,0,96.65,15.66Z"/><path class="cls-17" d="M74.7,100.47c-.59,1-1.61,2.18-2.37,2.18a2.28,2.28,0,0,1-1-.21l-1.47-.63a2,2,0,0,0-.75-.14,1.18,1.18,0,0,0-.79.26c-.19.19-.63.31-.94.8l-.63-.58A5,5,0,0,1,69,100a2.15,2.15,0,0,1,1.15,0c.54.23,1.36.47,1.89.7a1.94,1.94,0,0,0,.7.1c.54,0,.63-.24,1.33-.91C74.26,100.1,74.53,100.27,74.7,100.47Z"/><path class="cls-17" d="M33.9,88c-1.45,0-2.41.49-2.41,1.45v8c0,2-.42,3.42-1.76,4.36a6.85,6.85,0,0,1-4,1.08c-1.68,0-3.12-.1-4.08-.89-1.17-.94-1.62-2.72-1.62-4.75V89.5c0-1-.68-1.45-2-1.45v-.73h6.41v.73c-1.36,0-1.75.45-1.75,1.38l.05,8a5.23,5.23,0,0,0,.77,3.09,3.11,3.11,0,0,0,2.88,1.27c2.88,0,3.7-1.43,3.7-4.4V89.57c0-1-.47-1.57-1.92-1.57v-.68H33.9Z"/><path class="cls-17" d="M43.36,99.3,43,102.68H32.72v-.59a1.61,1.61,0,0,0,1.8-1.64V89.12c-.21-1-.19-.7-1-.91v-.86h9.62v3.33h-.77a4.24,4.24,0,0,0-.65-1.8,1.65,1.65,0,0,0-1.4-.56l-2.41.17c-.65,0-.75.31-.75,1v3.88h4.54c1.52,0,1.13,1.2,0,1.24l-4.5.17,0,5.81c0,.45-.12.72.07.84a1.37,1.37,0,0,0,.61.09h2.78a2.31,2.31,0,0,0,2.27-2.2Z"/><path class="cls-17" d="M55.64,97.94a4.63,4.63,0,0,1-2.25,3.82,6.37,6.37,0,0,1-3.35.93h-.42v-1c2.22-.44,3.06-1.29,3.06-3.49a2.42,2.42,0,0,0-1-2.32,4,4,0,0,0-2-.72V93.68l.24,0c1.83-1.22,1.8-2,1.8-3.07s-.4-2.06-2-2.27v-1c3.28,0,5,.47,5,2.9,0,1.78-.94,2.57-2.48,3.3a6,6,0,0,1,2.74,1.57A3.9,3.9,0,0,1,55.64,97.94Zm-6,4.75H43.28v-.77c1.33,0,2-.3,2-1.33V89.26c0-1-.68-1.17-2-1.17v-.77h6.34v1a7.5,7.5,0,0,0-1-.07,1.81,1.81,0,0,0-.65.07.71.71,0,0,0-.4.75v4.71l2-.1v1.45a6.38,6.38,0,0,0-1-.07h-1v5.71a.83.83,0,0,0,.75.86,1.91,1.91,0,0,0,1.1.07.62.62,0,0,0,.17,0Z"/><path class="cls-17" d="M66.18,99.24l-.54,3.51H54.8v-.84c1.15,0,2-.3,2-1.33V89.26c0-1-.77-1.2-1.92-1.2v-.82h6.63v.82c-1.15,0-2,.21-2,1.24v11.42c0,.61.09.91,1.68.91a6.59,6.59,0,0,0,3.23-.58c.65-.4.66-.54,1.13-1.8Z"/><path class="cls-17" d="M74.93,92.82a7.08,7.08,0,0,1-1.19,4,5.09,5.09,0,0,1-3.63,1.78V97.34c.87,0,1-.14,1.48-.89A7,7,0,0,0,72.22,93a7.61,7.61,0,0,0-.38-3.21c-.44-1-.72-1.36-1.57-1.36h-.16V87.2a5.44,5.44,0,0,1,3.61,1C74.84,89.29,74.93,91.16,74.93,92.82ZM70.11,98.6H70c-1.2,0-2.9,0-3.67-1.1a6.76,6.76,0,0,1-1.1-4A8.74,8.74,0,0,1,66.69,89,4.35,4.35,0,0,1,70,87.2h.14v1.26c-.8,0-.93.07-1.36,1A8.22,8.22,0,0,0,68,93a7.19,7.19,0,0,0,.56,3.3c.45,1,.73,1,1.54,1h0Z"/><path class="cls-17" d="M18.64,91.3a4.75,4.75,0,0,1-2.32,3.44,5.47,5.47,0,0,1-3.49.77l-.77,0v-.93a2,2,0,0,1,.89-.14c2.44-.42,2.86-1,2.86-3.35s-1.15-2.65-4-2.65a1.26,1.26,0,0,0-.7.12c-.16.12-.23.4-.23.86,0,4-.05,7.63-.05,11.64,0,1,1.1.87,2.48.87v.79H6.41v-.79c1.36,0,2.06,0,2.06-1l0-11.66c0-.51,0-.59-.3-.82a2.57,2.57,0,0,0-1.64-.38l-.09-.73h6.2c1.87,0,3.67.1,4.7.77S18.64,89.84,18.64,91.3Z"/><path class="cls-17" d="M99.55,102.51l-4.05-.16c-1,0-.82-7.8-1.66-12.9-1.45,4.17-3.16,8.38-4.59,12.52a1.51,1.51,0,0,1-1.47,0L82.84,89.14l-.47,11.12c0,.94.45,1.62,1.8,1.62v.44l-5,.09.12-.68c1.38,0,1.69-.44,1.76-1.47l.79-11c.07-1-.38-1.41-1.76-1.41l.09-.84,4.61-.12,4.52,11.56L93.58,87.2,98.33,87l0,.92c-1.1.17-1.68,0-1.62.7l.58,10.91c.12,2,1.1,2.15,2.32,2.15Z"/><path class="cls-17" d="M108.63,85.23c0,.16-.45.44-1,.56l-2.72.59-1.1-.09L106.11,85a2.25,2.25,0,0,1,1.54-.23A4.65,4.65,0,0,1,108.63,85.23Z"/><path class="cls-17" d="M121.16,101.46a11.51,11.51,0,0,1-5.38,1.5,6.05,6.05,0,0,1-5.08-2.44A8.48,8.48,0,0,1,109,95.13a7.37,7.37,0,0,1,1.83-5.25,7.7,7.7,0,0,1,4.57-2.9,7.32,7.32,0,0,1,5.12.47l-.12,3H120c-.75-2.65-3.07-2.13-4-2.13-1.43,0-2.37,1.06-3.18,2.44S112,93.5,112,95.58a6.75,6.75,0,0,0,1.26,4.29,3.37,3.37,0,0,0,3.21,1.75c.61,0,2.23-.42,2.27-1.59l0-1.52c0-1,.24-1.61-2.2-1.61v-.79h4.85Z"/><path class="cls-17" d="M128.84,102.27H122v-.56c1.5,0,2-.4,2-1.43v-11c0-1-.54-1.5-2-1.5V87h6.86v.79c-1.5,0-2.25.51-2.25,1.5v11c0,1,.75,1.43,2.25,1.43Z"/><path class="cls-17" d="M140.31,101a9.24,9.24,0,0,1-5.57,1.68,6.3,6.3,0,0,1-4.42-2.13c-1.19-1.47-1.26-3.53-1.26-5.8a7.85,7.85,0,0,1,1.68-5.38,5.67,5.67,0,0,1,3.88-2.34,16.3,16.3,0,0,1,5.6,0c.7.84-.19,2.11,0,3.3-.16.33-.33.33-.49,0-.3-1.59-1.26-2.27-3.72-2.27a3,3,0,0,0-3,1.71,9.64,9.64,0,0,0-1.15,5,8.78,8.78,0,0,0,1.34,4.94,3.62,3.62,0,0,0,3.07,1.64,6.67,6.67,0,0,0,3.84-1.1C140.63,100.12,140.7,100.45,140.31,101Z"/><path class="cls-17" d="M150.33,92.66a7.08,7.08,0,0,1-1.19,4,5.09,5.09,0,0,1-3.63,1.78V97.19c.87,0,1-.14,1.48-.89a7,7,0,0,0,.63-3.42,7.61,7.61,0,0,0-.38-3.21c-.44-1-.72-1.36-1.57-1.36h-.16V87a5.44,5.44,0,0,1,3.61,1C150.25,89.14,150.33,91,150.33,92.66Zm-4.82,5.78h-.09c-1.2,0-2.9,0-3.67-1.1a6.76,6.76,0,0,1-1.1-4,8.59,8.59,0,0,1,1.45-4.54,4.29,4.29,0,0,1,3.26-1.8h.14V88.3c-.8,0-.93.07-1.36,1a8.47,8.47,0,0,0-.75,3.58,7.19,7.19,0,0,0,.56,3.3c.45,1,.73,1,1.54,1h0Z"/><path class="cls-17" d="M149.62,100.42c-.59,1-1.61,2.18-2.36,2.18a2.37,2.37,0,0,1-1-.21l-1.47-.63a1.92,1.92,0,0,0-.75-.14,1.14,1.14,0,0,0-.77.26c-.21.19-.65.31-.94.8l-.63-.58A4.88,4.88,0,0,1,144,100a2.14,2.14,0,0,1,1.15,0c.54.21,1.36.45,1.9.68a1.89,1.89,0,0,0,.7.1c.54,0,.63-.24,1.31-.89C149.2,100,149.46,100.22,149.62,100.42Z"/><path class="cls-17" d="M108.63,100.42c-.59,1-1.61,2.18-2.36,2.18a2.37,2.37,0,0,1-1-.21l-1.47-.63a1.92,1.92,0,0,0-.75-.14,1.14,1.14,0,0,0-.77.26c-.21.19-.65.31-.94.8l-.63-.58A4.88,4.88,0,0,1,103,100a2.14,2.14,0,0,1,1.15,0c.54.21,1.36.45,1.9.68a1.88,1.88,0,0,0,.7.1c.54,0,.63-.24,1.31-.89C108.21,100,108.47,100.22,108.63,100.42Z"/><path class="cls-17" d="M104.81,95.56a8.55,8.55,0,0,1-1.94,2.06V96.07a3.21,3.21,0,0,0,1-1c.79-.89,1.08-4.45,1.08-5.67.12-.79-.65-.94-1.75-.89a3.17,3.17,0,0,0-.38.11V87.11a3.79,3.79,0,0,1,.44-.07,11.78,11.78,0,0,1,5.13.59c-.26.8-.86.75-1,1.54a16.59,16.59,0,0,0,.52,8.82l-2.11.35C104.56,98.25,105.1,96.42,104.81,95.56Zm-1.94,2.06a4.47,4.47,0,0,1-1.87.86c-2.16.37-2.39-2-2.41-3.53v-.14c0-.31,0-.59,0-.82a8.67,8.67,0,0,1,1.36-4.8,5.4,5.4,0,0,1,2.9-2.08v1.47a2.46,2.46,0,0,0-1.66,1.54c-.51,2.36-.84,3.58.19,5.76a1.13,1.13,0,0,0,1.47.19Z"/><path class="cls-17" d="M46.92,76.65c-.85,1.45-2.31,3.13-3.39,3.13a3.4,3.4,0,0,1-1.43-.3L40,78.58a2.76,2.76,0,0,0-1.08-.2,1.64,1.64,0,0,0-1.1.38c-.3.28-.93.45-1.35,1.15l-.9-.83A7,7,0,0,1,38.8,76a3.08,3.08,0,0,1,1.66,0c.78.3,2,.65,2.73,1a2.71,2.71,0,0,0,1,.15c.78,0,.9-.35,1.88-1.28C46.32,76.12,46.7,76.37,46.92,76.65Z"/><path class="cls-17" d="M139,76.65c-.85,1.45-2.31,3.13-3.39,3.13a3.4,3.4,0,0,1-1.43-.3l-2.11-.9a2.76,2.76,0,0,0-1.08-.2,1.64,1.64,0,0,0-1.1.38c-.3.28-.93.45-1.35,1.15l-.9-.83A7,7,0,0,1,130.84,76a3.08,3.08,0,0,1,1.66,0c.78.3,2,.65,2.73,1a2.71,2.71,0,0,0,1,.15c.78,0,.9-.35,1.88-1.28C138.37,76.12,138.74,76.37,139,76.65Z"/><path class="cls-1" d="M32.21,63.64c0,.67-.17.7-.48.7s-.45-.08-.5-.76a2,2,0,0,0-1.46-1.85,6.88,6.88,0,0,0-2.83-.56c-5.46,0-6,6.44-6,9,0,6.07,3,8.48,6.08,8.48a8.93,8.93,0,0,0,4.4-1.32c.67-.42.67-.42.78-.42s.2.22.2.36c0,.9-.14,1-1.09,1.48a12.46,12.46,0,0,1-5.77,1.46,8.63,8.63,0,0,1-5.4-1.62c-2.32-1.88-2.83-4.87-2.83-7.25,0-5.52,1.93-8.23,4.26-9.88a11.53,11.53,0,0,1,7-2,10.93,10.93,0,0,1,3.14.45.83.83,0,0,1,.64.87C32.41,61.09,32.21,63.19,32.21,63.64Z"/><path class="cls-1" d="M51.83,61.68c-.14-.48-.39-.92-1.93-.92-.45,0-.48-.14-.48-.48s.08-.45.28-.45c.92,0,1.79.11,4.06.11,1.74,0,2.8-.11,4-.11.17,0,.31,0,.31.42s-.08.45-.73.5c-1.2.11-1.51.28-1.68,1s-.2,1.68-.22,5.52l0,3.92c0,1.2,0,6,.14,6.72s.64.78,2.24.78c2.74,0,5-.53,5.26-2.46.08-.76.22-.76.5-.76s.5,0,.5.53A16.7,16.7,0,0,1,63.65,79c-.25.76-.92.87-2.18.87-.9,0-4.14-.14-7.7-.14-2.32,0-3.42.14-4.06.14-.17,0-.28,0-.28-.42s.06-.48.7-.53c1.18-.08,1.68-.22,1.79-1.43.14-1.4.14-6,.14-7.67C52.06,68.49,52.06,62.47,51.83,61.68Z"/><path class="cls-1" d="M69.66,63.33c1.48,4.23,2.91,8.65,3.95,11.84,0,0,.56,1.65.62,1.74s.11.2.22.2.22-.14.73-1.46c1.51-3.92,3-7.84,4.12-11a11,11,0,0,0,.76-2.88c0-.62-.22-1-1.76-1-.62,0-.7-.17-.7-.42s.08-.5.42-.5c1,0,2.3.08,3.44.08.92,0,1.85-.08,2.77-.08.31,0,.34.08.34.45s0,.42-.56.45c-1.18.08-1.57.31-2.74,3.16-3.11,7.53-4.23,10.33-5.6,13.89-.59,1.51-.64,1.71-1.18,1.85s-2.16.56-2.3.56c-.45,0-.56-.36-.81-1.15-.11-.34-.36-1-2.52-7.42-2.21-6.55-3.14-9.32-4-10.3-.25-.28-.64-.56-1.85-.56-.48,0-.59-.08-.59-.42,0-.53.31-.53.56-.53.76,0,1.23,0,2-.06s1.93-.2,2.24-.2C68.18,59.56,68.49,60,69.66,63.33Z"/><path class="cls-1" d="M91.5,78.65A4.11,4.11,0,0,0,93,79c.39,0,.5.08.5.42s-.08.5-.31.5c-1,0-2-.14-3.95-.14s-3.25.14-4.06.14c-.17,0-.28,0-.28-.42s.06-.48.7-.53c1.18-.08,1.68-.22,1.79-1.43.14-1.4.14-6,.14-7.67,0-1.37,0-7.39-.22-8.17-.14-.48-.39-.9-1.93-.92-.45,0-.48-.14-.48-.48s.08-.45.28-.45c.84,0,1.93.11,4,.11,1.71,0,3.11-.11,4-.11.17,0,.31,0,.31.42s-.08.45-.73.5c-1.2.11-1.51.28-1.71,1a28.73,28.73,0,0,0-.17,5l0,3.3C90.91,78.2,91,78.28,91.5,78.65Z"/><path class="cls-1" d="M97.6,61.68c-.14-.48-.39-.92-1.93-.92-.45,0-.48-.14-.48-.48s.08-.45.28-.45c.92,0,1.79.11,4.06.11,1.74,0,2.8-.11,4-.11.17,0,.31,0,.31.42s-.08.45-.73.5c-1.2.11-1.51.28-1.68,1s-.2,1.68-.22,5.52l0,3.92c0,1.2,0,6,.14,6.72s.64.78,2.24.78c2.74,0,5-.53,5.26-2.46.08-.76.22-.76.5-.76s.5,0,.5.53a16.7,16.7,0,0,1-.39,3.08c-.25.76-.92.87-2.18.87-.9,0-4.14-.14-7.7-.14-2.32,0-3.42.14-4.06.14-.17,0-.28,0-.28-.42s.06-.48.7-.53c1.18-.08,1.68-.22,1.79-1.43.14-1.4.14-6,.14-7.67C97.83,68.49,97.83,62.47,97.6,61.68Z"/><path class="cls-1" d="M113.33,61.68c-.14-.48-.39-.92-1.93-.92-.45,0-.48-.14-.48-.48s.08-.45.28-.45c.92,0,1.79.11,4.06.11,1.74,0,2.8-.11,4-.11.17,0,.31,0,.31.42s-.08.45-.73.5c-1.2.11-1.51.28-1.68,1s-.2,1.68-.22,5.52l0,3.92c0,1.2,0,6,.14,6.72s.64.78,2.24.78c2.74,0,5-.53,5.26-2.46.08-.76.22-.76.5-.76s.5,0,.5.53a16.7,16.7,0,0,1-.39,3.08c-.25.76-.92.87-2.18.87-.9,0-4.14-.14-7.7-.14-2.32,0-3.42.14-4.06.14-.17,0-.28,0-.28-.42s.06-.48.7-.53c1.18-.08,1.68-.22,1.79-1.43.14-1.4.14-6,.14-7.67C113.56,68.49,113.56,62.47,113.33,61.68Z"/><path class="cls-1" d="M46.93,60.53c.34.08.34.22.34.36,0,.39-.06.42-.53.53s-.67.39-.81,1.37c-.17,1.2-.2,3.86-.2,5.07s0,4.17.48,4.9c.22.31.62.5,1.65.5.64,0,.73,0,.73.39s0,.28-1,.48-3.22.53-3.67.53c-.78,0-1.29-.45-1.29-3.39,0-.14,0-.48-.2-.48s-.5.48-.64.7a8.84,8.84,0,0,1-2.91,2.86,3.73,3.73,0,0,1-1.46.31c-2.77,0-3.19-3.36-3.19-5.6,0-6.77,4.42-9.24,7.87-9.24A18,18,0,0,1,46.93,60.53Zm-8.43,2a11.82,11.82,0,0,0-1.06,5.15c0,1.51.22,4.48,1.76,4.48,1.12,0,2.3-2,2.58-2.55a12.52,12.52,0,0,0,1.09-5.49,5.9,5.9,0,0,0-.14-2c-.28-.53-1.46-.53-1.93-.53A2.55,2.55,0,0,0,38.51,62.58Z"/><path class="cls-1" d="M138.39,62.07a7.64,7.64,0,0,1,1,4.23c0,4.56-2.21,8.37-6.72,8.37s-5.8-3.39-5.8-6.44,1.23-8.4,6.89-8.4A4.88,4.88,0,0,1,138.39,62.07Zm-8.12,5.57c0,2.66.5,5.63,2.88,5.63s2.86-3.5,2.86-6.36c0-2.52-.42-5.66-2.72-5.66C131.61,61.26,130.27,63.33,130.27,67.65Z"/><rect class="cls-1" y="82.79" width="156.74" height="0.63"/></g></g></svg>