<svg xmlns="http://www.w3.org/2000/svg" viewBox="0 0 78.13 66.68"><defs><style>.cls-1{fill:#fff;}</style></defs><title>Recurso 10MUESTRA</title><g id="Capa_2" data-name="Capa 2"><g id="HOME_copia" data-name="HOME copia"><path class="cls-1" d="M52.28,45.5a3.14,3.14,0,0,0-4.11-1.67L37.69,48.25A3.14,3.14,0,0,0,36,52.36L38,57a3.13,3.13,0,0,0,2.89,1.92h0a3.12,3.12,0,0,0,1.22-.25l10.48-4.42a3.14,3.14,0,0,0,1.67-4.11Zm-.6,6.65L41.2,56.57a.83.83,0,0,1-.33.07h0a.84.84,0,0,1-.78-.51l-2-4.66a.84.84,0,0,1,.45-1.1l10.48-4.42a.84.84,0,0,1,1.1.45l2,4.66A.84.84,0,0,1,51.68,52.15Z"/><path class="cls-1" d="M41.92,31.82a9.27,9.27,0,0,0,10.25,0,5.11,5.11,0,0,0,2.32-4.14,5.11,5.11,0,0,0-2.32-4.14,9.27,9.27,0,0,0-10.25,0,5.11,5.11,0,0,0-2.32,4.14A5.11,5.11,0,0,0,41.92,31.82ZM47,24.28c2.79,0,5.15,1.55,5.15,3.39S49.84,31.06,47,31.06s-5.15-1.55-5.15-3.39S44.25,24.28,47,24.28Z"/><path class="cls-1" d="M26.4,44.92a3.61,3.61,0,0,0,4.77,1.83l5.29-2.35a3.61,3.61,0,0,0,1.83-4.77l-3.43-7.72a3.62,3.62,0,0,0-2.94-2.13c-1.21-.12-2.46-.35-3.68-.35a3.63,3.63,0,0,0-2.91,1.47l-2,2.68A3.62,3.62,0,0,0,23,37.21ZM25.21,35l2-2.68a1.33,1.33,0,0,1,1.19-.53l3.31.34a1.32,1.32,0,0,1,1.07.77l3.43,7.72a1.31,1.31,0,0,1-.67,1.73l-5.29,2.35a1.3,1.3,0,0,1-.53.11A1.32,1.32,0,0,1,28.5,44l-3.43-7.72A1.32,1.32,0,0,1,25.21,35Z"/><circle class="cls-1" cx="29.27" cy="35.36" r="1.43"/><path class="cls-1" d="M7.81,65H11a3.12,3.12,0,0,0,2.77,1.68h3.72A3.12,3.12,0,0,0,20.25,65H57.88a3.12,3.12,0,0,0,2.77,1.68h3.72A3.12,3.12,0,0,0,67.14,65h3.18a7.82,7.82,0,0,0,7.81-7.81v-28a1.15,1.15,0,0,0-2.3,0v28a5.52,5.52,0,0,1-5.51,5.51H67.49V14.09h2.83a5.52,5.52,0,0,1,5.51,5.51v5a1.15,1.15,0,0,0,2.3,0v-5a7.82,7.82,0,0,0-7.81-7.81H67.14a3.12,3.12,0,0,0-2.77-1.68H60.65a3.12,3.12,0,0,0-2.77,1.68H54V8.44A8.45,8.45,0,0,0,45.53,0H32.6a8.45,8.45,0,0,0-8.44,8.44v3.35H20.25a3.12,3.12,0,0,0-2.77-1.68H13.76A3.12,3.12,0,0,0,11,11.79H7.81A7.82,7.82,0,0,0,0,19.6V47.71a1.15,1.15,0,0,0,2.3,0V19.6a5.52,5.52,0,0,1,5.51-5.51h2.83V62.7H7.81A5.52,5.52,0,0,1,2.3,57.19V52.31a1.15,1.15,0,0,0-2.3,0v4.88A7.82,7.82,0,0,0,7.81,65ZM60.65,12.41h3.72a.82.82,0,0,1,.82.82h0V63.56h0a.82.82,0,0,1-.82.82H60.65a.82.82,0,0,1-.82-.82h0V13.23h0A.82.82,0,0,1,60.65,12.41Zm-34.19-4A6.15,6.15,0,0,1,32.6,2.3H45.53a6.15,6.15,0,0,1,6.14,6.14v3.35H47.84V8.44a2.32,2.32,0,0,0-2.31-2.31H32.6a2.32,2.32,0,0,0-2.31,2.31v3.35H26.46Zm6.13,3.35V8.44l0,0H45.53l0,0v3.35Zm-18.83.61h3.72a.82.82,0,0,1,.82.82v6.44a1.15,1.15,0,1,0,2.3,0V14.09H57.53V62.7H20.6V24.27a1.15,1.15,0,1,0-2.3,0V63.56a.82.82,0,0,1-.82.82H13.76a.82.82,0,0,1-.82-.82V13.23A.82.82,0,0,1,13.76,12.41Z"/></g></g></svg>