<svg xmlns="http://www.w3.org/2000/svg" viewBox="0 0 467.42 150.59"><defs><style>.cls-1{fill:#fff;}</style></defs><title>Recurso 2MUESTRA</title><g id="Capa_2" data-name="Capa 2"><g id="HOME_copia" data-name="HOME copia"><path class="cls-1" d="M234.45,125.38a2.05,2.05,0,0,0-.1-3.79l-.07,0a2.05,2.05,0,1,0-1.43,3.85h0A2,2,0,0,0,234.45,125.38Z"/><path class="cls-1" d="M265.41,95.09a2.05,2.05,0,0,0-3.33-1.81l-.06,0a2.05,2.05,0,1,0,2.61,3.16l0,0A2,2,0,0,0,265.41,95.09Z"/><path class="cls-1" d="M254.46,99.31a2.05,2.05,0,0,0-3.23,2v.08a2.05,2.05,0,1,0,4-.68v0A2,2,0,0,0,254.46,99.31Z"/><path class="cls-1" d="M252.65,110.91a2.05,2.05,0,0,0,.1,3.79l.07,0a2.05,2.05,0,1,0,1.43-3.85h0A2,2,0,0,0,252.65,110.91Z"/><path class="cls-1" d="M261.78,118.28a2.05,2.05,0,0,0,3.33,1.81l.06,0a2.05,2.05,0,1,0-2.61-3.16l0,0A2,2,0,0,0,261.78,118.28Z"/><path class="cls-1" d="M272.73,114.06a2.05,2.05,0,0,0,3.23-2V112a2.05,2.05,0,1,0-4,.68v0A2,2,0,0,0,272.73,114.06Z"/><path class="cls-1" d="M274.55,102.46a2.05,2.05,0,0,0-.1-3.79l-.07,0a2.05,2.05,0,1,0-1.43,3.85h0A2,2,0,0,0,274.55,102.46Z"/><path class="cls-1" d="M262.4,108.37a2.05,2.05,0,0,0,3.23-2v-.08a2.05,2.05,0,1,0-4,.68v0A2,2,0,0,0,262.4,108.37Z"/><path class="cls-1" d="M266.39,85.87a2.05,2.05,0,0,0-3.33-1.81l-.06,0a2.05,2.05,0,1,0,2.61,3.16l0,0A2,2,0,0,0,266.39,85.87Z"/><path class="cls-1" d="M255.6,87.26a2.05,2.05,0,0,0-3.79.1l0,.07a2.05,2.05,0,1,0,3.85,1.43v0A2,2,0,0,0,255.6,87.26Z"/><path class="cls-1" d="M247,93.86a2.05,2.05,0,0,0-3.23,2v.08a2.05,2.05,0,1,0,4-.68v0A2,2,0,0,0,247,93.86Z"/><path class="cls-1" d="M242.78,103.89a2.05,2.05,0,0,0-1.81,3.33l0,.06a2.05,2.05,0,1,0,3.16-2.61l0,0A2,2,0,0,0,242.78,103.89Z"/><path class="cls-1" d="M244.17,114.68a2.05,2.05,0,0,0,.1,3.79l.07,0a2.05,2.05,0,1,0,1.43-3.85h0A2,2,0,0,0,244.17,114.68Z"/><path class="cls-1" d="M250.77,123.32a2.05,2.05,0,0,0,2,3.23h.08a2.05,2.05,0,1,0-.68-4h0A2,2,0,0,0,250.77,123.32Z"/><path class="cls-1" d="M260.81,127.5a2.05,2.05,0,0,0,3.33,1.81l.06,0a2.05,2.05,0,1,0-2.61-3.16l0,0A2,2,0,0,0,260.81,127.5Z"/><path class="cls-1" d="M271.59,126.11a2.05,2.05,0,0,0,3.79-.1l0-.07a2.05,2.05,0,1,0-3.85-1.43v0A2,2,0,0,0,271.59,126.11Z"/><path class="cls-1" d="M280.23,119.51a2.05,2.05,0,0,0,3.23-2v-.08a2.05,2.05,0,1,0-4,.68v0A2,2,0,0,0,280.23,119.51Z"/><path class="cls-1" d="M284.42,109.47a2.05,2.05,0,0,0,1.81-3.33l0-.06A2.05,2.05,0,1,0,283,108.7l0,0A2,2,0,0,0,284.42,109.47Z"/><path class="cls-1" d="M291.89,100.93a2.05,2.05,0,0,0,1.81-3.33l0-.06a2.05,2.05,0,1,0-3.16,2.61l0,0A2,2,0,0,0,291.89,100.93Z"/><path class="cls-1" d="M242.25,128.15a2.05,2.05,0,0,0,1.81-3.33l0-.06a2.05,2.05,0,1,0-3.16,2.61l0,0A2,2,0,0,0,242.25,128.15Z"/><path class="cls-1" d="M283,98.69a2.05,2.05,0,0,0-.1-3.79l-.07,0a2.05,2.05,0,1,0-1.43,3.85h0A2,2,0,0,0,283,98.69Z"/><path class="cls-1" d="M296.36,92.29a2.05,2.05,0,0,0-.1-3.79l-.07,0a2.05,2.05,0,1,0-1.43,3.85h0A2,2,0,0,0,296.36,92.29Z"/><path class="cls-1" d="M276.42,90a2.05,2.05,0,0,0-2-3.23h-.08a2.05,2.05,0,1,0,.68,4h0A2,2,0,0,0,276.42,90Z"/><path class="cls-1" d="M287.63,88.45a2.05,2.05,0,0,0-2-3.23h-.08a2.05,2.05,0,1,0,.68,4h0A2,2,0,0,0,287.63,88.45Z"/><path class="cls-1" d="M237.46,115.67a2.05,2.05,0,0,0-2-3.23h-.08a2.05,2.05,0,1,0,.68,4h0A2,2,0,0,0,237.46,115.67Z"/><path class="cls-1" d="M270.86,34.4a28.37,28.37,0,0,0,7.45-10.12,28.38,28.38,0,0,0,2.44-12.33,23,23,0,0,0-3.12-11,1.9,1.9,0,0,0-2-.88,23,23,0,0,0-10.24,5.13,28.37,28.37,0,0,0-7.45,10.12c-.15.33-.28.66-.42,1-.21-.29-.43-.58-.65-.86a28.37,28.37,0,0,0-9.75-7.94,23,23,0,0,0-11.2-2.41,1.9,1.9,0,0,0-1.72,1.36,23,23,0,0,0-.26,11.45,28.37,28.37,0,0,0,5.45,11.32,28.37,28.37,0,0,0,9.75,7.94l.89.41C261.56,42.59,268.57,36.35,270.86,34.4Zm-17-16.61A25.41,25.41,0,0,1,256.08,21a27.34,27.34,0,0,0-.59,6.57c0,.35,0,.7.06,1l-1.89-2.4a1.9,1.9,0,1,0-3,2.35l5.43,6.89a23.3,23.3,0,0,1-13.74-8.64c-4.27-5.41-6.07-12.18-4.87-18C243.45,9,249.62,12.38,253.89,17.78Zm7.51-1c2.78-6.3,7.92-11.07,13.63-12.74,2.62,5.34,2.57,12.35-.21,18.65a23.31,23.31,0,0,1-11.1,11.78c1.57-3.56,3.62-8.27,4-9.05a1.89,1.89,0,0,0-1-2.48h0a1.88,1.88,0,0,0-2.49,1c-1.2,2.76-2.79,6.39-4,9.1A23.28,23.28,0,0,1,261.4,16.82Z"/><path class="cls-1" d="M223.4,73.07a1.68,1.68,0,0,0,1.12-.66v0a1.69,1.69,0,0,0-2.69-2.05l0,.05a1.69,1.69,0,0,0,1.59,2.68Z"/><path class="cls-1" d="M215.71,119.56c-3-2.16-5.52-5.59-6.51-11.08-.19-1.06-.86-4.83-.95-5.3v-.06c-2.68-12,1.48-26.87,10.85-38.7S242,45.19,254.31,45.06h.06a16.84,16.84,0,0,1,2,.11c3.16.28,7.93.7,12.77-2.6l.2-.16a6.26,6.26,0,0,1,9.7,7.7,1.72,1.72,0,0,0-.11.24c-2.11,5.46-.62,10,.37,13a16.88,16.88,0,0,1,.55,1.89v.06c0,.12,0,.24.07.35q1.79.22,3.55.59c-.1-.55-.2-1.11-.32-1.65a19.14,19.14,0,0,0-.66-2.3c-.88-2.68-2.09-6.35-.47-10.64a9.64,9.64,0,0,0-14.9-11.82c-3.81,2.54-7.66,2.21-10.47,2a19.11,19.11,0,0,0-2.39-.12,43.56,43.56,0,0,0-19.91,5.48A58.68,58.68,0,0,0,216.47,62.3h0l0,0h0a58.68,58.68,0,0,0-10.68,20.84,43.56,43.56,0,0,0-.81,20.63c.13.69.95,4.37,1.13,5.33,1.69,8.75,5.56,13.28,9.8,15.57A28.49,28.49,0,0,1,215.71,119.56Z"/><path class="cls-1" d="M219.94,76.24a1.69,1.69,0,0,0-2.28.72c-4.49,8.61-5.92,18.1-3.94,26a1.69,1.69,0,0,0,1.87,1.26l.17,0a1.69,1.69,0,0,0,1.23-2c-1.79-7.14-.45-15.76,3.66-23.65A1.69,1.69,0,0,0,219.94,76.24Z"/><path class="cls-1" d="M219.9,109.45a43.56,43.56,0,0,1,8.6-18.77,58.68,58.68,0,0,1,17.8-15.21h0l0,0h0a58.68,58.68,0,0,1,22.29-7.2,43.56,43.56,0,0,1,20.5,2.51,19.11,19.11,0,0,1,2.17,1c2.51,1.3,5.94,3.08,10.43,2.17A9.64,9.64,0,0,1,311,90.54c-3.12,3.36-3.4,7.21-3.61,10a19.14,19.14,0,0,1-.27,2.38,43.56,43.56,0,0,1-8.6,18.77,58.68,58.68,0,0,1-17.8,15.21h0l0,0h0a58.68,58.68,0,0,1-22.29,7.2,43.55,43.55,0,0,1-20.5-2.51,19.11,19.11,0,0,1-2.17-1c-2.41-1.25-21.3-3.63-16.82-25.82C219.11,113.85,219.76,110.13,219.9,109.45ZM248,78.4c-13.16,7.37-22.65,19.49-24.76,31.66v.06c-.1.47-.91,4.21-1.14,5.26-3.52,16.33,12.58,20.88,15.22,22.25a16.84,16.84,0,0,0,1.78.85l.06,0c11.46,4.57,26.77,2.84,39.94-4.51s22.65-19.49,24.76-31.66v-.06a16.88,16.88,0,0,0,.21-2c.23-3.16.58-7.94,4.61-12.19l.19-.18a6.26,6.26,0,0,0-6-10.81l-.25.07c-5.73,1.21-10-1-12.8-2.46a16.84,16.84,0,0,0-1.78-.85l-.06,0C276.45,69.31,261.15,71,248,78.4Z"/><path class="cls-1" d="M31.67,97.28q-.16,1.28-.45,2.71t-.61,2.68a5.79,5.79,0,0,1-.51,1.5,33.55,33.55,0,0,1-2.87,3.26,10.89,10.89,0,0,1-3.64,2.43A15.17,15.17,0,0,1,16.91,111a15.48,15.48,0,0,1-6.13-1.69,18.29,18.29,0,0,1-5.14-4,20.93,20.93,0,0,1-3.7-5.72,22.74,22.74,0,0,1-1.76-6.9,32.05,32.05,0,0,1,.13-7.82,28,28,0,0,1,2-7.38A14.43,14.43,0,0,1,12,69.08,15.75,15.75,0,0,1,22.31,70a20.51,20.51,0,0,1,3.77,2.17l1.56,1.15a9.85,9.85,0,0,1,1.85,1.76,2,2,0,0,1,.57,1.63q-.16.7-2.2.77a11,11,0,0,1-2.68-.19q-1.28-.25-2.55-.61T20.07,76a12.16,12.16,0,0,0-2.68-.29q-7.34,0-9.07,10-.26,1.53-.48,3.54t-.26,4.21a31.8,31.8,0,0,0,.22,4.31,15.75,15.75,0,0,0,.93,3.83,7.36,7.36,0,0,0,1.85,2.81,4.9,4.9,0,0,0,3.1,1.21,8.49,8.49,0,0,0,3.35-.41,14.91,14.91,0,0,0,3.13-1.47,30,30,0,0,0,2.87-2q1.37-1.08,2.59-2.17.19-.19,1-1.18a15.09,15.09,0,0,1,1.82-1.88,9.33,9.33,0,0,1,1.92-1.34q.89-.44,1.28.38a3.1,3.1,0,0,1,.19.42s0,0,0-.06a3.5,3.5,0,0,0-.16-.35A3.54,3.54,0,0,1,31.67,97.28Z"/><path class="cls-1" d="M51.43,83.8a2.18,2.18,0,0,1-1.09,1.37q-.9.54-2,1.12t-2.36,1.28a6.54,6.54,0,0,0-2,1.85,11.7,11.7,0,0,0-1.79,4.41,23.21,23.21,0,0,0-.48,4.89,13.83,13.83,0,0,0,.57,4q.54,1.69,1.37,1.69a3.37,3.37,0,0,0,2.14-1,12.51,12.51,0,0,0,2-2.2,14.1,14.1,0,0,0,1.47-2.55,5.53,5.53,0,0,0,.57-2q0-.7-.06-1.95a18.87,18.87,0,0,1,0-2.46,9.34,9.34,0,0,1,.38-2.11q.29-.89,1-1a10.81,10.81,0,0,0,1.69-.32,4.06,4.06,0,0,1,1.88-.06,2.15,2.15,0,0,1,1.44,1.25,7.7,7.7,0,0,1,.41,3.61,28.48,28.48,0,0,0,.51,7.82q.7,2.65,2.75,3.1a3,3,0,0,0,2.52-.67,13.26,13.26,0,0,0,2-2.08q.89-1.15,1.53-2.07t1-.73q.45.19.32,1.6a9.6,9.6,0,0,1-1,3.16,14.1,14.1,0,0,1-2.46,3.51,10.73,10.73,0,0,1-4.18,2.71,7,7,0,0,1-2.49.51,6.31,6.31,0,0,1-2.08-.32,5.22,5.22,0,0,1-1.63-.89,9,9,0,0,1-1.28-1.28,12.37,12.37,0,0,1-2-4,8.23,8.23,0,0,1-1.79,2.68,10.33,10.33,0,0,1-2.49,1.88,8.62,8.62,0,0,1-3.77,1,6.61,6.61,0,0,1-4.21-1.4,10.32,10.32,0,0,1-3.16-4,14.32,14.32,0,0,1-1.28-5.78,16.59,16.59,0,0,1,1.44-6.93,12.79,12.79,0,0,1,2.68-4,16.19,16.19,0,0,1,3.54-2.71,15.57,15.57,0,0,1,3.77-1.53,16.84,16.84,0,0,1,3.38-.54,7.39,7.39,0,0,1,2.43.22Q51.56,83.29,51.43,83.8Z"/><path class="cls-1" d="M84.64,72.18a37.12,37.12,0,0,1-.89,5.49,47.13,47.13,0,0,1-1.5,5,48,48,0,0,1-1.88,4.47q-1,2.11-2,3.83A48.58,48.58,0,0,1,73,98.36a4.57,4.57,0,0,0,.19,1.15,8.66,8.66,0,0,0,.51,1.56,14.06,14.06,0,0,0,1.21,2.2,7.31,7.31,0,0,0,3.67,3.35,6.43,6.43,0,0,0,3.9.13,8.23,8.23,0,0,0,5.21-4.69,4.75,4.75,0,0,1,1-1.92q.51-.45.93-.22a1.51,1.51,0,0,1,.64.93,4,4,0,0,1,.16,1.53,19.73,19.73,0,0,1-2.75,5A13.34,13.34,0,0,1,86,109.28a13,13,0,0,1-2.11,1.6A10.89,10.89,0,0,1,81.35,112a9,9,0,0,1-3,.35,11.84,11.84,0,0,1-6.8-2,14.52,14.52,0,0,1-4.37-4.92,22.29,22.29,0,0,1-2.36-6.8A48.81,48.81,0,0,1,64,91a53.94,53.94,0,0,1,.32-7.5q.41-3.61,1-6.29A40.57,40.57,0,0,1,67,71.61a20.25,20.25,0,0,1,2.62-4.85,11.92,11.92,0,0,1,3.7-3.32,8.11,8.11,0,0,1,5-.89A8,8,0,0,1,82,64a7.39,7.39,0,0,1,2.17,2.91A9.69,9.69,0,0,1,84.64,72.18ZM72.31,92.74Q74,90,75.38,87.06q1.21-2.49,2.36-5.46a31.49,31.49,0,0,0,1.66-5.84q.25-1.4.48-2.87a15.53,15.53,0,0,0,.19-2.71,4.83,4.83,0,0,0-.48-2.11,1.81,1.81,0,0,0-1.47-1,2.88,2.88,0,0,0-2.39.93,8.43,8.43,0,0,0-1.79,2.94,23.25,23.25,0,0,0-1.18,4.47,52.54,52.54,0,0,0-.64,5.49q-.19,2.91-.13,6T72.31,92.74Z"/><path class="cls-1" d="M88.34,83.93a6.14,6.14,0,0,1,2.91-.67,7.1,7.1,0,0,1,2.68.54,5,5,0,0,1,1.88,1.34,2.14,2.14,0,0,1,.57,1.72,34.15,34.15,0,0,0,0,8.21,37.59,37.59,0,0,0,1.31,6.45,13.63,13.63,0,0,0,1.72,3.86q.89,1.21,1.34.45a10.68,10.68,0,0,0,.83-3.16q.38-2.4,1.12-5.3a29.39,29.39,0,0,1,2.11-5.72,10.84,10.84,0,0,1,3.8-4.41q2.11-1.34,2.84-.89t.61,2a21.88,21.88,0,0,1-.8,4l-1.37,4.89q-.45,1.66-1.28,3.86a42.7,42.7,0,0,1-1.88,4.28,21.31,21.31,0,0,1-2.3,3.64,4.59,4.59,0,0,1-2.46,1.82,7.64,7.64,0,0,1-4,0,8.55,8.55,0,0,1-3-1.63,13.25,13.25,0,0,1-2.27-2.49q-1-1.4-1.82-2.75a13.1,13.1,0,0,1-1.25-2.52q-.67-1.69-1.28-3.77t-1.05-4.31a28.49,28.49,0,0,1-.54-4.18A11.88,11.88,0,0,1,87,85.82,2.59,2.59,0,0,1,88.34,83.93Z"/><path class="cls-1" d="M113.44,94.09q.19-1.53.51-2.94a18,18,0,0,1,.8-2.62,11.06,11.06,0,0,1,1.05-2.08,3.71,3.71,0,0,1,1.28-1.25,16.47,16.47,0,0,1,1.82-.67,5.31,5.31,0,0,1,2.11-.26,1.91,1.91,0,0,1,1.5.89,3.62,3.62,0,0,1-.06,2.78,24.82,24.82,0,0,0-.45,2.71q-.19,1.63-.22,3.51t.1,3.77a23.6,23.6,0,0,0,.48,3.48,10.28,10.28,0,0,0,1,2.71,2.86,2.86,0,0,0,1.5,1.44,3.75,3.75,0,0,0,3.19-.13,8.08,8.08,0,0,0,2.49-2.36,4.44,4.44,0,0,1,1.09-1.18,1.52,1.52,0,0,1,1.05-.41q.41.06.42.83a7.3,7.3,0,0,1-.83,2.56,12.23,12.23,0,0,1-2.27,3.26,10.58,10.58,0,0,1-3.07,2.2,10,10,0,0,1-3.61.93,9.25,9.25,0,0,1-3.83-.57,8,8,0,0,1-3.13-1.82,7.81,7.81,0,0,1-1.88-3.16,20.07,20.07,0,0,1-.89-4.82A62.3,62.3,0,0,1,113.44,94.09Zm2.87-22.8a3.05,3.05,0,0,1,2.14-1.72,5.7,5.7,0,0,1,2.81.06,5.61,5.61,0,0,1,2.36,1.31,2.31,2.31,0,0,1,.8,2.14,4,4,0,0,1-1.63,2.52,5.8,5.8,0,0,1-4.12.8,2.39,2.39,0,0,1-1.37-.57,4,4,0,0,1-1-1.25,3.74,3.74,0,0,1-.42-1.63A3,3,0,0,1,116.31,71.29Z"/><path class="cls-1" d="M149,72.18a37.12,37.12,0,0,1-.89,5.49,47.13,47.13,0,0,1-1.5,5,48,48,0,0,1-1.88,4.47q-1,2.11-2,3.83a48.58,48.58,0,0,1-5.36,7.41,4.57,4.57,0,0,0,.19,1.15,8.66,8.66,0,0,0,.51,1.56,14.06,14.06,0,0,0,1.21,2.2,7.31,7.31,0,0,0,3.67,3.35,6.43,6.43,0,0,0,3.9.13,8.23,8.23,0,0,0,5.21-4.69,4.75,4.75,0,0,1,1-1.92q.51-.45.93-.22a1.51,1.51,0,0,1,.64.93,4,4,0,0,1,.16,1.53,19.73,19.73,0,0,1-2.75,5,13.34,13.34,0,0,1-1.66,1.85,13,13,0,0,1-2.11,1.6,10.89,10.89,0,0,1-2.52,1.12,9,9,0,0,1-3,.35,11.84,11.84,0,0,1-6.8-2,14.52,14.52,0,0,1-4.37-4.92,22.29,22.29,0,0,1-2.36-6.8,48.81,48.81,0,0,1-.8-7.7,53.94,53.94,0,0,1,.32-7.5q.41-3.61,1-6.29a40.57,40.57,0,0,1,1.69-5.56A20.25,20.25,0,0,1,134,66.75a11.92,11.92,0,0,1,3.7-3.32,8.11,8.11,0,0,1,5-.89A8,8,0,0,1,146.39,64a7.39,7.39,0,0,1,2.17,2.91A9.69,9.69,0,0,1,149,72.18ZM136.68,92.74q1.66-2.74,3.07-5.68,1.21-2.49,2.36-5.46a31.49,31.49,0,0,0,1.66-5.84q.25-1.4.48-2.87a15.53,15.53,0,0,0,.19-2.71,4.83,4.83,0,0,0-.48-2.11,1.81,1.81,0,0,0-1.47-1,2.88,2.88,0,0,0-2.39.93,8.43,8.43,0,0,0-1.79,2.94,23.25,23.25,0,0,0-1.18,4.47,52.54,52.54,0,0,0-.64,5.49q-.19,2.91-.13,6T136.68,92.74Z"/><path class="cls-1" d="M171.23,72.18a37.12,37.12,0,0,1-.89,5.49,47.13,47.13,0,0,1-1.5,5A48,48,0,0,1,167,87.12q-1,2.11-2,3.83a48.58,48.58,0,0,1-5.36,7.41,4.57,4.57,0,0,0,.19,1.15,8.66,8.66,0,0,0,.51,1.56,14.06,14.06,0,0,0,1.21,2.2,7.31,7.31,0,0,0,3.67,3.35,6.43,6.43,0,0,0,3.9.13,8.23,8.23,0,0,0,5.21-4.69,4.75,4.75,0,0,1,1-1.92q.51-.45.93-.22a1.51,1.51,0,0,1,.64.93,4,4,0,0,1,.16,1.53,19.73,19.73,0,0,1-2.75,5,13.34,13.34,0,0,1-1.66,1.85,13,13,0,0,1-2.11,1.6,10.89,10.89,0,0,1-2.52,1.12,9,9,0,0,1-3,.35,11.84,11.84,0,0,1-6.8-2,14.52,14.52,0,0,1-4.37-4.92,22.29,22.29,0,0,1-2.36-6.8,48.81,48.81,0,0,1-.8-7.7,53.94,53.94,0,0,1,.32-7.5q.41-3.61,1-6.29a40.57,40.57,0,0,1,1.69-5.56,20.25,20.25,0,0,1,2.62-4.85,11.92,11.92,0,0,1,3.7-3.32,8.11,8.11,0,0,1,5-.89A8,8,0,0,1,168.62,64a7.39,7.39,0,0,1,2.17,2.91A9.69,9.69,0,0,1,171.23,72.18ZM158.91,92.74Q160.57,90,162,87.06q1.21-2.49,2.36-5.46A31.49,31.49,0,0,0,166,75.76q.25-1.4.48-2.87a15.53,15.53,0,0,0,.19-2.71,4.83,4.83,0,0,0-.48-2.11,1.81,1.81,0,0,0-1.47-1,2.88,2.88,0,0,0-2.39.93,8.43,8.43,0,0,0-1.79,2.94,23.25,23.25,0,0,0-1.18,4.47,52.54,52.54,0,0,0-.64,5.49q-.19,2.91-.13,6T158.91,92.74Z"/><path class="cls-1" d="M188.67,84.89a13.37,13.37,0,0,1,4.53,4.37,15,15,0,0,1,2.08,5.43,14.45,14.45,0,0,1-.16,5.65,15.22,15.22,0,0,1-2.14,5.08,12.71,12.71,0,0,1-3.8,3.74,9.92,9.92,0,0,1-5.24,1.53,10.58,10.58,0,0,1-6.23-1.63,11.36,11.36,0,0,1-3.86-4.31A14.73,14.73,0,0,1,172.29,99a15,15,0,0,1,.67-5.81,10.92,10.92,0,0,1,2.94-4.63A7.94,7.94,0,0,1,181,86.49a18.63,18.63,0,0,0,4.09-.61,9.38,9.38,0,0,0,1.85-.77l.8-.48Q188,84.51,188.67,84.89Zm-7.47,5.56a3.85,3.85,0,0,0-.64,1.85,28.32,28.32,0,0,0-.35,3.45,38.61,38.61,0,0,0,0,4.15,29.5,29.5,0,0,0,.48,4,10,10,0,0,0,1,2.94q.64,1.15,1.53,1a2.8,2.8,0,0,0,1.72-1.18,11.64,11.64,0,0,0,1.5-2.62,19.31,19.31,0,0,0,1.09-3.45,22.72,22.72,0,0,0,.51-3.67,12.27,12.27,0,0,0-.22-3.26,4.42,4.42,0,0,0-1.09-2.24,5.91,5.91,0,0,0-3-2A3.11,3.11,0,0,0,181.2,90.44Z"/><path class="cls-1" d="M316.26,106.86a2.32,2.32,0,0,1,1.23.36,3.22,3.22,0,0,1,1,.93,2.9,2.9,0,0,1,.48,1.25,2.06,2.06,0,0,1-.23,1.28,4.62,4.62,0,0,1-1.44,1.5,4.34,4.34,0,0,1-2,.8,2.72,2.72,0,0,1-1.94-.52,3.49,3.49,0,0,1-1.16-2.41,1.93,1.93,0,0,1,.32-1.55,3,3,0,0,1,1.16-.84,7,7,0,0,1,1.46-.43A3.85,3.85,0,0,0,316.26,106.86Z"/><path class="cls-1" d="M334.21,95.78q-.14.23-.87.11a7.55,7.55,0,0,0-1.69,0,4.68,4.68,0,0,0-1.91.59,3.75,3.75,0,0,0-1.55,2,13.6,13.6,0,0,0-.75,3.1,11.89,11.89,0,0,0,0,3.12,7.85,7.85,0,0,0,.77,2.57,3.11,3.11,0,0,0,1.53,1.5,4.61,4.61,0,0,0,2.46.36,6.86,6.86,0,0,0,2-.62,8,8,0,0,0,1.48-.93,4,4,0,0,1,1-.64q.86-.27.77.66a5.05,5.05,0,0,1-1.28,2.39,9.24,9.24,0,0,1-1.59,1.57,8.2,8.2,0,0,1-2.14,1.21,7.85,7.85,0,0,1-2.57.5,7.54,7.54,0,0,1-2.94-.55,7.13,7.13,0,0,1-2.64-1.78,10.35,10.35,0,0,1-1.94-2.85,13.06,13.06,0,0,1-1-3.49,11,11,0,0,1,1.41-7.36,10.6,10.6,0,0,1,2.85-3.12,6.17,6.17,0,0,1,3.39-1.28,7.29,7.29,0,0,1,2.92.46,4.89,4.89,0,0,1,1.94,1.3Q334.44,95.37,334.21,95.78Z"/><path class="cls-1" d="M347.7,94.46a9.54,9.54,0,0,1,3.24,3.12,10.72,10.72,0,0,1,1.48,3.87,10.31,10.31,0,0,1-.11,4,10.87,10.87,0,0,1-1.53,3.62,9.07,9.07,0,0,1-2.71,2.67,7.08,7.08,0,0,1-3.74,1.09,7.55,7.55,0,0,1-4.44-1.16,8.11,8.11,0,0,1-2.76-3.08,10.51,10.51,0,0,1-1.12-4.08,10.7,10.7,0,0,1,.48-4.15,7.8,7.8,0,0,1,2.1-3.3,5.66,5.66,0,0,1,3.65-1.5,13.29,13.29,0,0,0,2.92-.43,6.69,6.69,0,0,0,1.32-.55l.57-.34Q347.2,94.19,347.7,94.46Zm-5.33,4a2.74,2.74,0,0,0-.46,1.32,20.15,20.15,0,0,0-.25,2.46,27.55,27.55,0,0,0,0,3A21.14,21.14,0,0,0,342,108a7.18,7.18,0,0,0,.71,2.1q.46.82,1.09.73a2,2,0,0,0,1.23-.84,8.3,8.3,0,0,0,1.07-1.87,13.8,13.8,0,0,0,.78-2.46,16.21,16.21,0,0,0,.36-2.62,8.76,8.76,0,0,0-.16-2.32,3.15,3.15,0,0,0-.77-1.59,4.22,4.22,0,0,0-2.16-1.44A2.22,2.22,0,0,0,342.37,98.43Z"/><path class="cls-1" d="M355.54,92.27a3.41,3.41,0,0,1,1.55.25,4,4,0,0,1,1.18.77,4.9,4.9,0,0,1,.87,1.12,7.39,7.39,0,0,1,.59,1.32,14.86,14.86,0,0,1,.64,3.55,8.87,8.87,0,0,1,.64-1,22.57,22.57,0,0,1,2.05-2.78,19.86,19.86,0,0,1,1.55-1.64,7,7,0,0,1,1.85-1.25,5.79,5.79,0,0,1,2.26-.52,7.47,7.47,0,0,1,2.83.55A6,6,0,0,1,374,94.1a7,7,0,0,1,1.37,2.12,11.82,11.82,0,0,1,.71,2.46q.23,1.3.5,2.48a13.25,13.25,0,0,0,.64,2.8q.23.39,1-1.75a17.73,17.73,0,0,1,1.09-2.57A11.76,11.76,0,0,1,381,97.08a6.2,6.2,0,0,1,2.19-1.62,2.73,2.73,0,0,1,2.46.18,6.54,6.54,0,0,1,1.66,1.43,10.08,10.08,0,0,1,1.41,2.23,16.32,16.32,0,0,1,1,2.87,19,19,0,0,1,.55,3.3,23.28,23.28,0,0,0,.39,3,5.72,5.72,0,0,0,.68,1.87,1.88,1.88,0,0,0,1.14.87,4,4,0,0,0,1.8,0q.82-.18,1.14.27a1,1,0,0,1,0,1,2.75,2.75,0,0,1-1.16,1.12,4.7,4.7,0,0,1-2.39.52,5,5,0,0,1-2.64-.73,9.35,9.35,0,0,1-2.14-1.82,14.22,14.22,0,0,1-1.71-2.44,23,23,0,0,1-1.28-2.64q-.52-1.3-.87-2.35l-.52-1.59q-.27-.82-.68-.32a7.58,7.58,0,0,0-.91,1.62q-.5,1.12-1,2.51a21.38,21.38,0,0,1-1.09,2.39,17.76,17.76,0,0,1-1.21,1.91,4.73,4.73,0,0,1-1.46,1.37,2.35,2.35,0,0,1-1.8.21,5,5,0,0,1-2.23-1.57,6.71,6.71,0,0,1-1.34-2.21,19.74,19.74,0,0,1-.87-2.87q-.34-1.53-.55-3.08t-.32-2.92q-.11-1.37-.23-2.35a7.79,7.79,0,0,0-.25-1.39,1.21,1.21,0,0,0-1.71-.66,9.07,9.07,0,0,0-3.12,2.62,6.18,6.18,0,0,0-1.37,2.85,24.61,24.61,0,0,0-.55,3.67,34.27,34.27,0,0,0-.09,3.46q0,1.59,0,2.28a1.88,1.88,0,0,1-.46,1.23,2.79,2.79,0,0,1-1.18.82,3.57,3.57,0,0,1-1.69.16,4.14,4.14,0,0,1-1.91-.8,4,4,0,0,1-1-2,24.82,24.82,0,0,1-.73-3.67q-.27-2.1-.39-4.44t0-4.33a22.24,22.24,0,0,1,.32-3.3Q355.08,92.37,355.54,92.27Z"/><path class="cls-1" d="M400.15,106.86a2.32,2.32,0,0,1,1.23.36,3.22,3.22,0,0,1,1,.93,2.9,2.9,0,0,1,.48,1.25,2.06,2.06,0,0,1-.23,1.28,4.61,4.61,0,0,1-1.43,1.5,4.34,4.34,0,0,1-2,.8,2.72,2.72,0,0,1-1.94-.52A3.49,3.49,0,0,1,396,110a1.93,1.93,0,0,1,.32-1.55,3,3,0,0,1,1.16-.84,7,7,0,0,1,1.46-.43A3.84,3.84,0,0,0,400.15,106.86Z"/><path class="cls-1" d="M406.71,92.27a3.41,3.41,0,0,1,1.55.25,4,4,0,0,1,1.18.77,4.9,4.9,0,0,1,.87,1.12,7.39,7.39,0,0,1,.59,1.32,14.86,14.86,0,0,1,.64,3.55,8.87,8.87,0,0,1,.64-1,22.57,22.57,0,0,1,2.05-2.78,19.86,19.86,0,0,1,1.55-1.64,7,7,0,0,1,1.85-1.25,5.79,5.79,0,0,1,2.26-.52,7.47,7.47,0,0,1,2.83.55,6,6,0,0,1,2.44,1.5,7,7,0,0,1,1.37,2.12,11.82,11.82,0,0,1,.71,2.46q.23,1.3.5,2.48a13.25,13.25,0,0,0,.64,2.8q.23.39,1-1.75a17.73,17.73,0,0,1,1.09-2.57,11.76,11.76,0,0,1,1.73-2.55,6.2,6.2,0,0,1,2.19-1.62,2.73,2.73,0,0,1,2.46.18,6.54,6.54,0,0,1,1.66,1.43,10.08,10.08,0,0,1,1.41,2.23,16.32,16.32,0,0,1,1,2.87,19,19,0,0,1,.55,3.3,23.28,23.28,0,0,0,.39,3,5.72,5.72,0,0,0,.68,1.87,1.88,1.88,0,0,0,1.14.87,4,4,0,0,0,1.8,0q.82-.18,1.14.27a1,1,0,0,1,0,1,2.75,2.75,0,0,1-1.16,1.12,4.7,4.7,0,0,1-2.39.52,5,5,0,0,1-2.64-.73,9.35,9.35,0,0,1-2.14-1.82,14.22,14.22,0,0,1-1.71-2.44,23,23,0,0,1-1.28-2.64q-.52-1.3-.87-2.35l-.52-1.59q-.27-.82-.68-.32a7.58,7.58,0,0,0-.91,1.62q-.5,1.12-1,2.51a21.38,21.38,0,0,1-1.09,2.39,17.76,17.76,0,0,1-1.21,1.91,4.73,4.73,0,0,1-1.46,1.37,2.35,2.35,0,0,1-1.8.21,5,5,0,0,1-2.23-1.57,6.71,6.71,0,0,1-1.34-2.21,19.74,19.74,0,0,1-.87-2.87q-.34-1.53-.55-3.08t-.32-2.92q-.11-1.37-.23-2.35a7.79,7.79,0,0,0-.25-1.39,1.21,1.21,0,0,0-1.71-.66,9.07,9.07,0,0,0-3.12,2.62,6.18,6.18,0,0,0-1.37,2.85,24.61,24.61,0,0,0-.55,3.67,34.28,34.28,0,0,0-.09,3.46q0,1.59,0,2.28a1.88,1.88,0,0,1-.46,1.23,2.79,2.79,0,0,1-1.18.82,3.57,3.57,0,0,1-1.69.16,4.14,4.14,0,0,1-1.91-.8,4,4,0,0,1-1-2,24.82,24.82,0,0,1-.73-3.67q-.27-2.1-.39-4.44t0-4.33a22.24,22.24,0,0,1,.32-3.3Q406.25,92.37,406.71,92.27Z"/><path class="cls-1" d="M465.76,92.64a.62.62,0,0,0,.2.2.52.52,0,0,1,.21.32,1.32,1.32,0,0,1,0,.57,2.79,2.79,0,0,1-.5.91l-1.37,2.07q-.68,1-1.55,2.19t-2,2.55q-1.16,1.39-2.8,3.12,1.64,1.64,3.39,3.19t3.17,2.92a21,21,0,0,1,2.26,2.51,2.66,2.66,0,0,1,.71,1.91q-.09.41-1.23.11a19.18,19.18,0,0,1-2.94-1.12q-1.8-.82-4.1-2.1t-4.72-2.87a3.31,3.31,0,0,1-.82-.64,39.26,39.26,0,0,1-3.42,2.89,24.65,24.65,0,0,1-3.1,2,3.61,3.61,0,0,1,.64,1,1.71,1.71,0,0,1,.09,1,1.67,1.67,0,0,1-2.07,1.12,2,2,0,0,1-1.16-1,2.7,2.7,0,0,1-.21-1.85,5,5,0,0,1,1.53-2.44q.73-.73,2.07-2.14t2.85-3.05a33.36,33.36,0,0,1-2.64-3.33A41.74,41.74,0,0,1,445.85,99a34.66,34.66,0,0,1-1.8-3.74A19.58,19.58,0,0,1,443,91.91a7.58,7.58,0,0,1-.14-2.69,2.18,2.18,0,0,1,1-1.64,1.53,1.53,0,0,1,1.55,0A6.52,6.52,0,0,1,447.15,89a18.53,18.53,0,0,1,1.8,2.39q.91,1.41,1.82,3t1.8,3.19q.89,1.62,1.75,3a4.2,4.2,0,0,1,.32.46,4.12,4.12,0,0,0,.32.46q1.41-1.55,2.48-2.67t2-2q.89-.86,1.69-1.57t1.71-1.44a6,6,0,0,1,2-1.18Q465.67,92.41,465.76,92.64Z"/><path class="cls-1" d="M336.76,56.83A2.76,2.76,0,0,1,334,54.07V34.77H314.7a2.76,2.76,0,0,1,0-5.52h22.06A2.76,2.76,0,0,1,339.52,32V54.07a2.76,2.76,0,0,1-2.76,2.76"/><path class="cls-1" d="M336.76,150.59H314.7a2.76,2.76,0,0,1,0-5.52H334v-19.3a2.76,2.76,0,1,1,5.52,0v22.06a2.76,2.76,0,0,1-2.76,2.76"/><path class="cls-1" d="M198.87,150.59H176.81a2.76,2.76,0,0,1-2.76-2.76V125.77a2.76,2.76,0,1,1,5.52,0v19.3h19.3a2.76,2.76,0,0,1,0,5.52"/><path class="cls-1" d="M176.81,56.83a2.76,2.76,0,0,1-2.76-2.76V32a2.76,2.76,0,0,1,2.76-2.76h22.06a2.76,2.76,0,0,1,0,5.52h-19.3v19.3a2.76,2.76,0,0,1-2.76,2.76"/></g></g></svg>