<svg xmlns="http://www.w3.org/2000/svg" viewBox="0 0 72.73 63.88"><defs><style>.cls-1{fill:#fff;}</style></defs><title>Recurso 14MUESTRA</title><g id="Capa_2" data-name="Capa 2"><g id="HOME_copia" data-name="HOME copia"><path class="cls-1" d="M71.94,30.4a2.91,2.91,0,0,0-2.12-.92h-.24a12.23,12.23,0,0,0-5.71-17.39,12.28,12.28,0,0,0-24.55,0,3.24,3.24,0,0,0-.77-.1,3.36,3.36,0,0,0-2.75,1.43l-.31.43a.9.9,0,0,1-1.12.3l-.48-.22a3.36,3.36,0,0,0-4.76,2.75l0,.53a3.11,3.11,0,0,1-.21.74.9.9,0,0,1-.52-.74l0-.53a3.28,3.28,0,0,0-1.43-2.43l3.86-5.48a4.91,4.91,0,1,0-8-5.66l-7.08,10a5,5,0,0,0-.55,1.07.72.72,0,0,1-.36-.07l-.48-.22a3.36,3.36,0,0,0-4.76,2.75l0,.53a.91.91,0,0,1-.82.82l-.53,0a3.36,3.36,0,0,0-2.75,4.76l.22.48a.91.91,0,0,1-.3,1.12l-.44.31A3.37,3.37,0,0,0,3.4,27.49a3.32,3.32,0,0,0,.68,2H2.91a2.92,2.92,0,0,0-2.12.92A3,3,0,0,0,0,32.61c.73,10.74,7.56,16.14,17.6,20.93A5.76,5.76,0,0,1,20.21,56,3.71,3.71,0,0,1,20,59.64a2.79,2.79,0,0,0,2.39,4.24h28a2.8,2.8,0,0,0,2.38-4.26,3.69,3.69,0,0,1-.23-3.56,5.76,5.76,0,0,1,2.61-2.51c10-4.79,16.87-10.18,17.6-20.93a3,3,0,0,0-.78-2.21Zm-3.15-7.07a9.79,9.79,0,0,1-2.17,6.14H60.19V24.57a1.23,1.23,0,1,0-2.45,0v4.91H53.4a3.1,3.1,0,0,0,.26-.43v0a3.68,3.68,0,0,0,.25-.66l0-.17a3.58,3.58,0,0,0,.08-.71,3.35,3.35,0,0,0-1.42-2.75l-.29-.2.29,0,.44,0,.72-.11.42-.08c.26-.06.51-.12.76-.19l.34-.1a10,10,0,0,0,1-.38l.27-.13c.25-.11.49-.22.72-.35l.39-.22.55-.34.4-.28c.17-.11.33-.24.49-.37l.39-.31.44-.4.37-.35c.14-.14.26-.29.39-.43s.48-.56.7-.85c.08-.11.16-.2.23-.31s.26-.4.38-.59l.18-.31c.13-.22.24-.43.35-.65l.13-.27c.11-.24.22-.49.32-.74l.06-.16a12.16,12.16,0,0,0,.54-1.85,9.83,9.83,0,0,1,5.16,8.63ZM51.59,2.46a9.84,9.84,0,0,1,9.82,9.82c0,.19,0,.37,0,.55h0a9.73,9.73,0,0,1-.92,3.62v0a8,8,0,0,1-.4.74l0,.09c-.13.22-.28.43-.43.64l-.09.13c-.14.19-.29.37-.44.55l-.14.17c-.14.16-.29.32-.45.47l-.19.19-.46.39-.25.2-.46.33-.29.19-.47.28L56,21c-.15.08-.31.15-.47.22l-.37.16c-.16.07-.32.11-.48.17l-.4.13c-.15,0-.31.08-.47.12l-.44.1-.46.07-.48.06h-.09a.18.18,0,0,1,0,0,3.51,3.51,0,0,0,0-.67c0-.07,0-.14,0-.21a2.87,2.87,0,0,0-.08-.52,2.12,2.12,0,0,0-.05-.21,3.33,3.33,0,0,0-.29-.67,3.39,3.39,0,0,0-2.61-1.67l-.53,0a.9.9,0,0,1-.74-.51l2.63-2.62A1.23,1.23,0,1,0,49,13.15L47.23,14.9a3.28,3.28,0,0,0-.94-.83,3.15,3.15,0,0,0-.78-.32,2.53,2.53,0,0,0-.28,0,3.39,3.39,0,0,0-.55-.07h-.07a3.42,3.42,0,0,0-.42,0l-.26,0a3.29,3.29,0,0,0-.74.23l-.48.22a.85.85,0,0,1-.38.08h0a.87.87,0,0,1-.38-.11,9.65,9.65,0,0,1-.18-1.83,9.84,9.84,0,0,1,9.83-9.82Zm-20.07,15,0-.53a.91.91,0,0,1,.45-.7.88.88,0,0,1,.83,0l.49.22a3.36,3.36,0,0,0,4.16-1.12l.31-.43a.93.93,0,0,1,1.48,0l.31.43a3.35,3.35,0,0,0,2.65,1.41h0a2.94,2.94,0,0,0,.45,0l.2,0,.3-.06a3.11,3.11,0,0,0,.52-.19l.48-.23a.91.91,0,0,1,.83,0,.9.9,0,0,1,.45.71l0,.53a3.37,3.37,0,0,0,3,3l.53,0a.91.91,0,0,1,.74,1.28l-.23.49s0,0,0,.07a3.34,3.34,0,0,0,.18,3l0,0a2.29,2.29,0,0,0,.22.32l.14.17.18.2a3.32,3.32,0,0,0,.41.34l.44.31a.91.91,0,0,1,0,1.48l-.44.31h0a2.85,2.85,0,0,0-.44.38l-.15.17c-.07.09-.14.17-.21.27l-.08.1H33.74a3.29,3.29,0,0,0,.26-.43v0a3.16,3.16,0,0,0,.25-.66,1.67,1.67,0,0,0,0-.17,3.55,3.55,0,0,0,.09-.71,3,3,0,0,0-.06-.46,2.17,2.17,0,0,0,0-.33,3.35,3.35,0,0,0-.46-1,3.43,3.43,0,0,0-.86-.93l-.44-.31a.92.92,0,0,1-.3-1.12l.23-.48a3.57,3.57,0,0,0,.23-.73,1.41,1.41,0,0,0,0-.23,3.22,3.22,0,0,0,0-.53,2,2,0,0,0,0-.27,3,3,0,0,0-.07-.47l-.1-.3c0-.08,0-.16-.08-.25s-.06-.08-.08-.13,0-.13-.08-.19a3,3,0,0,0-.23-.31,3,3,0,0,0-.19-.26,3.79,3.79,0,0,0-.49-.44c-.05,0-.1-.1-.15-.13a5.08,5.08,0,0,0,.27-1.19ZM24.72,4.52a2.46,2.46,0,0,1,4,2.83l-4.79,6.8-2.29,3.24a2.47,2.47,0,0,1-3.42.59h0a2.66,2.66,0,0,1-.46-.43l-.1-.13a2.44,2.44,0,0,1-.29-.51l0,0a2.54,2.54,0,0,1-.14-.61,1.41,1.41,0,0,1,0-.16,2.55,2.55,0,0,1,0-.64,2.48,2.48,0,0,1,.39-.91Zm-18,24-.44-.31a.9.9,0,0,1-.38-.74.88.88,0,0,1,.38-.74l.43-.31a3.36,3.36,0,0,0,1.11-4.16l-.22-.48a.91.91,0,0,1,0-.83.9.9,0,0,1,.71-.45l.53,0a3.36,3.36,0,0,0,3-3l0-.53a.88.88,0,0,1,.44-.7.89.89,0,0,1,.83,0l.49.22a3.27,3.27,0,0,0,1.1.29.43.43,0,0,0,0,.08s0,0,0,.06.07.27.11.41.08.32.13.47a5.72,5.72,0,0,0,.25.52c.06.12.11.23.17.35a4.44,4.44,0,0,0,.42.55c.06.08.11.16.17.23a4.71,4.71,0,0,0,1.52,1.09l.25.1a4.5,4.5,0,0,0,.58.19l.29.07c.21,0,.42.06.63.08l.24,0h.06a5.15,5.15,0,0,0,.85-.07,4.89,4.89,0,0,0,3.18-2l1.81-2.56a.86.86,0,0,1,.39.66l0,.53a3.37,3.37,0,0,0,3,3l.53,0a.81.81,0,0,1,.32.1l.14.08a1,1,0,0,1,.17.18.62.62,0,0,1,.1.13.86.86,0,0,1,.11.36v0a.88.88,0,0,1-.08.41l-.23.48A3.39,3.39,0,0,0,29.71,24v0a3.09,3.09,0,0,0,.1.54,3.36,3.36,0,0,0,1.31,1.88l.3.21.14.1a.92.92,0,0,1,.38.75.88.88,0,0,1-.1.41s-.06.06-.08.1a.81.81,0,0,1-.2.23h0l-.42.29a3.68,3.68,0,0,0-.47.4l-.12.14c-.09.11-.18.22-.26.34l0,.05H7.56a3.45,3.45,0,0,0-.89-.94ZM54.06,51.33a8.2,8.2,0,0,0-3.73,3.59,6.18,6.18,0,0,0,.32,6,.3.3,0,0,1,0,.34.31.31,0,0,1-.29.17h-28a.31.31,0,0,1-.29-.17.33.33,0,0,1,0-.36,6.16,6.16,0,0,0,.31-6,8.21,8.21,0,0,0-3.73-3.6C9.14,46.78,3.11,42,2.46,32.45a.49.49,0,0,1,.13-.37.45.45,0,0,1,.33-.14h66.9a.44.44,0,0,1,.33.14.48.48,0,0,1,.13.37C69.62,42,63.59,46.78,54.06,51.33Zm0,0"/><path class="cls-1" d="M45.45,52.82H34.76a1.23,1.23,0,1,0,0,2.46H45.45a1.23,1.23,0,0,0,0-2.46Zm0,0"/><path class="cls-1" d="M27,55.28h4.16a1.23,1.23,0,0,0,0-2.46H27a1.23,1.23,0,1,0,0,2.46Zm0,0"/><path class="cls-1" d="M45.45,56.51H27A1.23,1.23,0,1,0,27,59H45.45a1.23,1.23,0,1,0,0-2.45Zm0,0"/><path class="cls-1" d="M49,11.41a1.24,1.24,0,0,0,.87.36,1.23,1.23,0,0,0,.87-2.09L47.25,6.2a1.23,1.23,0,0,0-1.74,1.74Zm0,0"/><path class="cls-1" d="M55.94,18.37a1.23,1.23,0,0,0,1.73-1.74L54.2,13.15a1.23,1.23,0,0,0-1.74,1.73Zm0,0"/><path class="cls-1" d="M53.33,11.77a1.22,1.22,0,0,0,.87-.36l3.47-3.47A1.23,1.23,0,0,0,55.94,6.2L52.46,9.68a1.23,1.23,0,0,0,.87,2.09Zm0,0"/><path class="cls-1" d="M60.19,22.11a1.23,1.23,0,0,0,1.23,1.23h4.91a1.23,1.23,0,1,0,0-2.45H61.42a1.23,1.23,0,0,0-1.23,1.22Zm0,0"/><path class="cls-1" d="M37.47,22.73a1.22,1.22,0,0,0,.86-.36l1.84-1.84a1.23,1.23,0,0,0-1.73-1.74L36.6,20.63a1.23,1.23,0,0,0,0,1.74,1.22,1.22,0,0,0,.87.36Zm0,0"/><path class="cls-1" d="M43.35,25.44a1.23,1.23,0,0,0,1.74-1.74l-1.23-1.23a1.23,1.23,0,0,0-1.74,1.74Zm0,0"/><path class="cls-1" d="M38.44,24.93l-1.23,1.23a1.23,1.23,0,0,0,1.74,1.73l1.22-1.22a1.23,1.23,0,1,0-1.73-1.74Zm0,0"/></g></g></svg>