<svg xmlns="http://www.w3.org/2000/svg" viewBox="0 0 21.72 21.73"><defs><style>.cls-1{fill:#4d4d4d;}</style></defs><title>Recurso 7MUESTRA</title><g id="Capa_2" data-name="Capa 2"><g id="HOME_copia" data-name="HOME copia"><path class="cls-1" d="M11.57,14.75a7.71,7.71,0,0,1-3.32.93,7.83,7.83,0,0,1-8-9.75A7.42,7.42,0,0,1,6.25.2a7.38,7.38,0,0,1,8,3.12,7.5,7.5,0,0,1,.52,8.28.43.43,0,0,0,.1.6q3.05,3,6.09,6.08a4.75,4.75,0,0,1,.43.47A1.84,1.84,0,0,1,21,21.3,1.87,1.87,0,0,1,18.41,21L12.26,14.9a2.61,2.61,0,0,1-.26-.37Zm2.85-6.93a6.57,6.57,0,1,0-6.57,6.6A6.6,6.6,0,0,0,14.42,7.82Zm-1.48,6.05c.18.15.38.29.55.45L19.21,20c.12.12.24.3.38.32a.94.94,0,0,0,.67-.13c.13-.12.11-.42.1-.64s-.12-.18-.2-.26L14,13.13,13.81,13Z"/><path class="cls-1" d="M7.86,2.58V3.78a4.13,4.13,0,0,1,4,4h1.2A5.17,5.17,0,0,0,7.86,2.58Z"/></g></g></svg>