<svg xmlns="http://www.w3.org/2000/svg" viewBox="0 0 84 65.11"><defs><style>.cls-1{fill:#fff;}</style></defs><title>Recurso 9MUESTRA</title><g id="Capa_2" data-name="Capa 2"><g id="HOME_copia" data-name="HOME copia"><path class="cls-1" d="M23.63,55.68c-13.75-1.17-21.17-5.52-21.17-9,0-3,5.15-6.1,13.13-7.83l.19-.06a36.5,36.5,0,0,0,11.75,2.47h.07a1.23,1.23,0,0,0,.07-2.46A31.87,31.87,0,0,1,15,35.7c-3-1.58-4.68-3.53-4.68-5.47,0-2.41,2.58-4.81,6.92-6.48,3.1,1.92,7.69,3.11,12.89,3.11s9.8-1.19,12.89-3.11a16.4,16.4,0,0,1,4.86,2.76,1.23,1.23,0,0,0,1.63-1.85A17.17,17.17,0,0,0,45.27,22a6.13,6.13,0,0,0,1.91-4.27c0-3.93-4.45-7.31-11.18-8.59a9,9,0,0,0,.07-1.08A9.16,9.16,0,0,0,31.51.17a1.23,1.23,0,0,0-1.24,0,9.11,9.11,0,0,0-3.76,4.17A9.15,9.15,0,0,0,20.91,4a1.23,1.23,0,0,0-.87.87,9.15,9.15,0,0,0,.2,5.36c-4.46,1.68-7.09,4.42-7.09,7.46A6.13,6.13,0,0,0,15.06,22c-4.58,2.07-7.17,5-7.17,8.23,0,2.59,1.69,5,4.58,6.84a30.48,30.48,0,0,0-8,3.29C.77,42.67,0,45.07,0,46.67c0,6.54,11.76,10.48,23.42,11.47h.11a1.23,1.23,0,0,0,.1-2.46Zm7.25-53a6.64,6.64,0,0,1,1.45,9.24,9.14,9.14,0,0,0-2.62-5.54,9,9,0,0,0-1-.89A6.63,6.63,0,0,1,30.89,2.7ZM22.27,6.28a6.65,6.65,0,0,1,7.58,7.58,6.65,6.65,0,0,1-7.58-7.58Zm-.9,6.22a9,9,0,0,0,1,1.24,9.16,9.16,0,0,0,7.82,2.57A3.75,3.75,0,0,0,31.51,16a9.16,9.16,0,0,0,3.87-4.42c5.45,1,9.34,3.55,9.34,6.2,0,1.59-1.44,3.22-3.94,4.48a24.31,24.31,0,0,1-10.61,2.18,24.31,24.31,0,0,1-10.61-2.18c-2.5-1.25-3.94-2.88-3.94-4.48C15.62,15.75,17.8,13.77,21.36,12.49Z"/><path class="cls-1" d="M83.3,43.28a22.31,22.31,0,0,0-10-2.21,22.42,22.42,0,0,0-2.21-9.94,1.23,1.23,0,0,0-1.2-.69,22.42,22.42,0,0,0-9.71,3A22.31,22.31,0,0,0,53.35,26,1.23,1.23,0,0,0,52,26a22.31,22.31,0,0,0-6.89,7.51,22.41,22.41,0,0,0-9.73-3.06,1.23,1.23,0,0,0-1.2.69,22.42,22.42,0,0,0-2.21,9.94,22.3,22.3,0,0,0-10,2.21,1.23,1.23,0,0,0-.69,1.2A22.28,22.28,0,0,0,52.64,63.15,22.28,22.28,0,0,0,84,44.48,1.23,1.23,0,0,0,83.3,43.28ZM69.27,33a20,20,0,0,1,1.61,8.26,22.24,22.24,0,0,0-7.8,2.48,22.25,22.25,0,0,0-1.76-8A19.94,19.94,0,0,1,69.27,33ZM36,33a19.94,19.94,0,0,1,8,2.74,22.25,22.25,0,0,0-1.76,8,22.25,22.25,0,0,0-7.83-2.5A20,20,0,0,1,36,33ZM33.59,60a19.81,19.81,0,0,1-9.77-14.85,19.81,19.81,0,0,1,17.74,1l.76.47a22.27,22.27,0,0,0,7.86,14.83A19.8,19.8,0,0,1,33.59,60Zm38.09,0A19.81,19.81,0,0,1,55.1,61.48,22.53,22.53,0,0,0,59.85,56a1.23,1.23,0,0,0-2.11-1.28,20.06,20.06,0,0,1-5.09,5.59,19.81,19.81,0,0,1,0-31.77A19.83,19.83,0,0,1,59.49,51a1.23,1.23,0,0,0,2.32.83A22.13,22.13,0,0,0,63,46.63l.73-.45a19.81,19.81,0,0,1,17.74-1A19.81,19.81,0,0,1,71.69,60Z"/></g></g></svg>