<svg xmlns="http://www.w3.org/2000/svg" viewBox="0 0 77.37 53.3"><defs><style>.cls-1{fill:#fff;}</style></defs><title>Recurso 13MUESTRA</title><g id="Capa_2" data-name="Capa 2"><g id="HOME_copia" data-name="HOME copia"><path class="cls-1" d="M8.95,12.12a1,1,0,0,0,.26,0L26,14.32c1.19,3,2.4,6,3.64,9a50.74,50.74,0,0,0-5.17,2.8l-9.23,4.56c-1,.51-.25,1.89.73,1.73,6.68-1.09,12.85.32,19,2.86,5.36,2.21,10.51,5.09,16.21,6.33a1,1,0,0,0,1.07-1.39q-4.51-9.24-9-18.49Q41,16.93,38.7,12.1A68.89,68.89,0,0,0,35.6,5.52C33.42,2,28.09,2.27,24.42,1.79,19.85,1.2,15.22.32,10.62,0,2.84-.5,1.32,10.51,8.95,12.12ZM9.68,1.86A9.15,9.15,0,0,1,11.34,2c2.34.26,4.67.6,7,.9L27.13,4c1.6.21,3.52.18,5,.84,2.33,1,3.47,5.11,4.53,7.35Q39,17.1,41.34,22q4.18,8.67,8.41,17.32c-5.63-1.6-10.8-4.57-16.26-6.63a35.72,35.72,0,0,0-12.91-2.48l3.24-1.6L27.08,27c.86-.43,3-2,3.87-2,.55,0,1.15-.61.91-1.2-1.46-3.5-2.87-7-4.26-10.54a1,1,0,0,0-.91-.69L9.45,10.3H9.4C4.61,9.22,4.42,2.25,9.68,1.86Z"/><path class="cls-1" d="M59.08,34.14a12.43,12.43,0,0,0,12.25-12,1.43,1.43,0,0,0,0-.47,12.26,12.26,0,0,0-24.53.24A12.4,12.4,0,0,0,59.08,34.14Zm0-22.66A10.51,10.51,0,0,1,69.47,21.86a10.38,10.38,0,1,1-20.77,0A10.47,10.47,0,0,1,59.08,11.48Z"/><path class="cls-1" d="M76.91,39.45a4.19,4.19,0,0,0-4.46-2.16c-2.22.41-3.05,2.55-4.59,3.95-12.44,11.31-29.1-4.33-42.12-6a27.79,27.79,0,0,0-19.3,4.71C3.2,42.21-2.68,47.11,1.37,51.12a.85.85,0,0,0,.26.25.83.83,0,0,0,.27.14,4.26,4.26,0,0,0,4.64-.17,27.35,27.35,0,0,0,2.57-2.85,17.42,17.42,0,0,1,4.39-3.11c7.35-3.7,15-1.65,22,1.58C46.64,52,58.7,56.77,70.21,49.78,73.2,48,79.05,43.58,76.91,39.45Zm-2.36,3.9a9.41,9.41,0,0,1-1.2,1.47,18,18,0,0,1-2.66,2.35,22.15,22.15,0,0,1-7.49,3.52c-11.32,3-20.62-3.13-30.7-7.08-4.76-1.87-9.79-2.77-14.85-1.67a20.81,20.81,0,0,0-7.16,3c-1.77,1.19-5.33,5.93-7.74,4.86C-1.53,45.52,11.6,39,14.46,38.09a27.33,27.33,0,0,1,17.24.54c9.64,3.28,18.94,10.18,29.64,7.85a18.12,18.12,0,0,0,5.53-2.18c1.54-.94,2.58-2.72,4-3.6C74.22,38.65,75.51,41.73,74.55,43.35Z"/></g></g></svg>