<svg xmlns="http://www.w3.org/2000/svg" viewBox="0 0 347.01 78.16"><defs><style>.cls-1{fill:#cf0e3e;}</style></defs><title>Recurso 8MUESTRA</title><g id="Capa_2" data-name="Capa 2"><g id="HOME_copia" data-name="HOME copia"><path class="cls-1" d="M123.91,14.68v-.07a2.93,2.93,0,0,1,.68-2.12,2.13,2.13,0,0,1,1.6-.56,6.19,6.19,0,0,1,.63,0q1.15.22,1.4.79a3.26,3.26,0,0,1,.21,1.28v.68c0,.11,0,.16.05.16h0a.2.2,0,0,0,.13-.07l.18-.23a2.77,2.77,0,0,1,.23-.31,9,9,0,0,1,2.16-1.6,6.45,6.45,0,0,1,2.73-.83h.22a2.9,2.9,0,0,1,2.16,1,9.3,9.3,0,0,1,1,1.4l.25.43q.25.36.45.36l.09,0a1.65,1.65,0,0,0,.5-.5l.29-.32a6.81,6.81,0,0,1,4.49-2.26l.23,0h.05a3,3,0,0,1,2.44,1,6,6,0,0,1,1.23,2.51,15.66,15.66,0,0,1,.42,2.78c0,.25.06.61.11,1.06q.13,1.24.26,2.9t.15,3.1v.2a5.38,5.38,0,0,1-.22,1.82,1.31,1.31,0,0,1-1.15.72h0a1.86,1.86,0,0,1-1.35-.59,2,2,0,0,1-.54-1.51c0-.12,0-.24,0-.36,0-.35.08-.67.13-1q.14-1,.21-2.07.05-.68.05-1.69c0-.34,0-.7,0-1.08a14.87,14.87,0,0,0-.39-3.27,2.68,2.68,0,0,0-1.3-2,1,1,0,0,0-.43-.09A3.83,3.83,0,0,0,141,15.58a8,8,0,0,0-2.06,3.49,16.41,16.41,0,0,0-.66,4,9.75,9.75,0,0,0,.11,1.33,9.28,9.28,0,0,1,.13,1.49v.32a1.46,1.46,0,0,1-.61,1.28,1.54,1.54,0,0,1-.63.14,1.64,1.64,0,0,1-.93-.32,1.91,1.91,0,0,1-.88-1.22c0-.14,0-.3,0-.47s0-.37,0-.58q.05-.63.13-1.28t.13-1.31q0-.65,0-1.74V20a18.12,18.12,0,0,0-.33-3.3,3.43,3.43,0,0,0-1.16-2.22,1,1,0,0,0-.63-.2,3.14,3.14,0,0,0-1.8.84,9.22,9.22,0,0,0-2.36,3.2,11,11,0,0,0-1,3.88c0,.37,0,.75,0,1.13v.58c0,.25,0,.5,0,.74s0,.67,0,1a3,3,0,0,1-.55,1.51,2,2,0,0,1-1.54.74l-.34,0a1.82,1.82,0,0,1-1.54-.61,3,3,0,0,1-.59-1.76q0-.48,0-1t.05-1.19q0-.48,0-.9,0-1.44,0-2.88t0-2.87Q123.92,15.69,123.91,14.68Z"/><path class="cls-1" d="M160.89,25a8,8,0,0,1-1.14,1.24,7.68,7.68,0,0,1-1.39.93,7.33,7.33,0,0,1-3.24.88,4.43,4.43,0,0,1-1.2-.16q-1.91-.54-2.66-3.4a11,11,0,0,1-.23-2.3,14.32,14.32,0,0,1,.23-2.52A12.41,12.41,0,0,1,153.09,15a6.29,6.29,0,0,1,3.74-2.75,5.6,5.6,0,0,1,1.15-.13,4.21,4.21,0,0,1,.79.07,9.57,9.57,0,0,1,1.49.34,2.47,2.47,0,0,0,.65.14h0l.08,0,.15-.09.3-.14.24-.11A4.35,4.35,0,0,1,163,12a1.53,1.53,0,0,1,1.13.41,3.34,3.34,0,0,1,.72,2.39q0,.38,0,.77t0,1q0,.54,0,1.65,0,1.38,0,3.09v1.1q0,1.06,0,2a8.6,8.6,0,0,0,.25,1.8l.14.5V27q-.23.93-.93.93h-.5a2.85,2.85,0,0,1-1.73-.93A4.73,4.73,0,0,1,160.89,25Zm0-9.38a5.38,5.38,0,0,0-2.82-1.06,2.24,2.24,0,0,0-.86.16A4,4,0,0,0,155,17a11.6,11.6,0,0,0-.91,3.73q-.05.65-.05,1.24a9,9,0,0,0,.23,2.14q.36,1.44,1.37,1.56l.14,0q1,0,2.7-1.83A7.54,7.54,0,0,0,160,21.42a20.78,20.78,0,0,0,.76-2.73l.11-.43Z"/><path class="cls-1" d="M174.88,16.5a11.08,11.08,0,0,0-1.1,2.07,11.81,11.81,0,0,0-.9,2.66,8.47,8.47,0,0,0-.12,1.53q0,.29,0,.59,0,.67,0,1.64v.11a4.26,4.26,0,0,1-.41,2,1.68,1.68,0,0,1-1.67.79h-.11q-1.46-.14-1.73-1.2a6.27,6.27,0,0,1-.22-1.65,6.09,6.09,0,0,1,0-.65c0-.16,0-.31,0-.47s0-.29,0-.43l0-1.58V20.47q0-2.88-.05-5.75v-.25a3.18,3.18,0,0,1,.43-1.78,2.2,2.2,0,0,1,1.94-.74q1.2,0,1.54,3.13l.09.81a7.63,7.63,0,0,1,.46-1,3.74,3.74,0,0,1,.64-.93A7.12,7.12,0,0,1,176,12.4a4.36,4.36,0,0,1,1.76-.36,5.72,5.72,0,0,1,1.78.31,1.58,1.58,0,0,1,.88.74.9.9,0,0,1,.16.52,7.72,7.72,0,0,1,0,.91,2.64,2.64,0,0,1-.14.55q-.4,1.06-1.19,1.06H179a3.45,3.45,0,0,1-1.65-.86.82.82,0,0,0-.45-.25,2,2,0,0,0-1,.4A4.66,4.66,0,0,0,174.88,16.5Z"/><path class="cls-1" d="M191.84,25a8,8,0,0,1-1.14,1.24,7.66,7.66,0,0,1-1.39.93,7.32,7.32,0,0,1-3.23.88,4.44,4.44,0,0,1-1.2-.16q-1.91-.54-2.66-3.4a11,11,0,0,1-.23-2.3,14.32,14.32,0,0,1,.23-2.52A12.41,12.41,0,0,1,184,15a6.29,6.29,0,0,1,3.74-2.75,5.6,5.6,0,0,1,1.15-.13,4.23,4.23,0,0,1,.79.07,9.61,9.61,0,0,1,1.49.34,2.47,2.47,0,0,0,.65.14h0l.08,0,.15-.09.3-.14.24-.11A4.35,4.35,0,0,1,194,12a1.53,1.53,0,0,1,1.13.41,3.34,3.34,0,0,1,.72,2.39q0,.38,0,.77l0,1q0,.54,0,1.65,0,1.38,0,3.09v1.1q0,1.06,0,2a8.64,8.64,0,0,0,.25,1.8l.14.5V27q-.23.93-.93.93h-.5A2.84,2.84,0,0,1,193,27,4.73,4.73,0,0,1,191.84,25Zm0-9.38A5.38,5.38,0,0,0,189,14.59a2.24,2.24,0,0,0-.86.16A4,4,0,0,0,186,17a11.62,11.62,0,0,0-.91,3.73Q185,21.4,185,22a9,9,0,0,0,.23,2.14q.36,1.44,1.37,1.56l.14,0q1,0,2.7-1.83A7.55,7.55,0,0,0,191,21.42a20.63,20.63,0,0,0,.76-2.73l.11-.43Z"/><path class="cls-1" d="M199.09,13.53a1.62,1.62,0,0,1,.93-1.22,2.38,2.38,0,0,1,1-.2,2.91,2.91,0,0,1,.63.07,2.42,2.42,0,0,1,1.4.88,4.57,4.57,0,0,1,.64,1.45q.24.89.4,1.79.13.63.25,1.13a.3.3,0,0,0,0,.09q.09.41.38,1.46t.66,2.23a17.28,17.28,0,0,0,.73,2c.21.46.4.68.56.68l.07,0a5.84,5.84,0,0,0,.77-2.11q.41-1.72.79-3.75t.61-3.34q.09-.52.14-.79a2.31,2.31,0,0,1,.52-1.17,1,1,0,0,1,.75-.32,1.91,1.91,0,0,1,.43.05,1.28,1.28,0,0,1,.86,1.28v0a6.23,6.23,0,0,1-.27,1.83l-.09.47q-.05.22-.11.5-.29,1.55-.87,4a29.47,29.47,0,0,1-1.46,4.56,4.6,4.6,0,0,1-2.08,2.62,3,3,0,0,1-.74.09,3.65,3.65,0,0,1-1.35-.27,4.1,4.1,0,0,1-1.74-1.22,11.69,11.69,0,0,1-1.32-2.78q-.69-1.91-1.27-3.91t-.83-3.07q-.16-.7-.31-1.51a8.06,8.06,0,0,1-.09-1.19Z"/><path class="cls-1" d="M218,4.12a3,3,0,0,1,1.55,1.46A3,3,0,0,1,219.92,7a3.25,3.25,0,0,1-.11.83,2.11,2.11,0,0,1-1.29,1.44,3.41,3.41,0,0,1-1.28.25,3.31,3.31,0,0,1-.68-.07,1.84,1.84,0,0,1-1.35-.84A2.65,2.65,0,0,1,215,7.4c0-.12,0-.25,0-.38a5,5,0,0,1,.44-1.8,2.17,2.17,0,0,1,1.07-1.15,2.43,2.43,0,0,1,.7-.11A2.35,2.35,0,0,1,218,4.12Zm-3,10.95v-.34a4,4,0,0,1,.43-1.94A1.69,1.69,0,0,1,217.1,12l.41,0a2.28,2.28,0,0,1,1.64.82,3,3,0,0,1,.52,1.57q0,.34,0,.7,0,.59-.05,1.19t-.05,1.1q0,1.19,0,2.39a30,30,0,0,0,.3,3.79,4.75,4.75,0,0,0,.9,2.62l.14.5V27q-.23.93-.93.93h-.5q-2.14-.2-3.13-2.84a19.84,19.84,0,0,1-1.11-6Q215,17.09,215,15.06Z"/><path class="cls-1" d="M227.2,0a2.17,2.17,0,0,1,1.71,1,4.15,4.15,0,0,1,.54,1.92c0,.34,0,.66,0,1s0,.76-.05,1.13q-.16,1.4-.21,3.9-.05,1.65-.16,3.33t-.18,3.27v.16q0,.79,0,2.39v.32q0,1.46.14,3a12.24,12.24,0,0,0,.58,3q.44,1.26,1.29,1.37H231l.29,0a2.07,2.07,0,0,1,.38,0,1.54,1.54,0,0,1,.34,0q.32.07.34.52a1.22,1.22,0,0,1-.59.92,3.87,3.87,0,0,1-1.28.57,4.54,4.54,0,0,1-1,.13l-.27,0a3.19,3.19,0,0,1-1.86-1,6.57,6.57,0,0,1-1.23-1.9,11.37,11.37,0,0,1-.68-2,25.79,25.79,0,0,1-.49-3.78q-.11-1.95-.11-3.85c0-.2,0-.41,0-.61q0-1.89,0-3.77V7.48q0-2.39-.05-4.21a6.5,6.5,0,0,1,.3-2A1.91,1.91,0,0,1,227,0Z"/><path class="cls-1" d="M237.37,0a2.17,2.17,0,0,1,1.71,1,4.15,4.15,0,0,1,.54,1.92c0,.34,0,.66,0,1s0,.76-.05,1.13q-.16,1.4-.21,3.9-.05,1.65-.16,3.33T239,15.51v.16q0,.79,0,2.39v.32q0,1.46.14,3a12.24,12.24,0,0,0,.58,3q.44,1.26,1.29,1.37h.11l.29,0a2.07,2.07,0,0,1,.38,0,1.54,1.54,0,0,1,.34,0q.32.07.34.52a1.22,1.22,0,0,1-.59.92,3.87,3.87,0,0,1-1.28.57,4.54,4.54,0,0,1-1,.13l-.27,0a3.19,3.19,0,0,1-1.86-1,6.57,6.57,0,0,1-1.23-1.9,11.37,11.37,0,0,1-.68-2,25.79,25.79,0,0,1-.49-3.78q-.11-1.95-.11-3.85c0-.2,0-.41,0-.61q0-1.89,0-3.77V7.48q0-2.39-.05-4.21a6.5,6.5,0,0,1,.3-2A1.91,1.91,0,0,1,237.14,0Z"/><path class="cls-1" d="M253.9,25a8,8,0,0,1-1.14,1.24,7.66,7.66,0,0,1-1.39.93,7.32,7.32,0,0,1-3.23.88,4.44,4.44,0,0,1-1.2-.16q-1.91-.54-2.66-3.4a11,11,0,0,1-.23-2.3,14.32,14.32,0,0,1,.23-2.52A12.41,12.41,0,0,1,246.1,15a6.29,6.29,0,0,1,3.74-2.75,5.6,5.6,0,0,1,1.15-.13,4.23,4.23,0,0,1,.79.07,9.61,9.61,0,0,1,1.49.34,2.47,2.47,0,0,0,.65.14h0l.08,0,.15-.09.3-.14.24-.11A4.35,4.35,0,0,1,256,12a1.53,1.53,0,0,1,1.13.41,3.34,3.34,0,0,1,.72,2.39q0,.38,0,.77l0,1q0,.54,0,1.65,0,1.38,0,3.09v1.1q0,1.06,0,2a8.64,8.64,0,0,0,.25,1.8l.14.5V27q-.23.93-.93.93h-.5a2.84,2.84,0,0,1-1.73-.93A4.73,4.73,0,0,1,253.9,25Zm0-9.38a5.38,5.38,0,0,0-2.82-1.06,2.24,2.24,0,0,0-.86.16A4,4,0,0,0,248,17a11.62,11.62,0,0,0-.91,3.73q-.05.65-.05,1.24a9,9,0,0,0,.23,2.14q.36,1.44,1.37,1.56l.14,0q1,0,2.7-1.83A7.55,7.55,0,0,0,253,21.42a20.63,20.63,0,0,0,.76-2.73l.11-.43Z"/><path class="cls-1" d="M266.83,11.09a5.1,5.1,0,0,1,3.23,1.38,2,2,0,0,1,.56,1.22.94.94,0,0,1-.14.5.87.87,0,0,1-.81.43,2.48,2.48,0,0,1-.84-.18l-.34-.18a7.65,7.65,0,0,0-1.69-.7,1.71,1.71,0,0,0-.47-.07,1.31,1.31,0,0,0-1,.52,1.23,1.23,0,0,0-.2.68,2,2,0,0,0,.2.81,8.23,8.23,0,0,0,1.16,1.77q.75.89,1.38,1.55c.22.22.38.4.5.54A17.18,17.18,0,0,1,270,21.49a5.85,5.85,0,0,1,.92,2.31,4.3,4.3,0,0,1,0,.56,4.57,4.57,0,0,1-.52,2A3.73,3.73,0,0,1,268.19,28a6.69,6.69,0,0,1-1.81.25,7.08,7.08,0,0,1-1.22-.11A5.83,5.83,0,0,1,262.53,27a5,5,0,0,1-1.2-1.6,2.25,2.25,0,0,1-.25-1,1.57,1.57,0,0,1,.25-.86.9.9,0,0,1,.61-.29.76.76,0,0,1,.31.07,3.82,3.82,0,0,1,.86.63l.16.16.05,0a6.29,6.29,0,0,0,1.46,1.08,1.77,1.77,0,0,0,.83.22,1.91,1.91,0,0,0,.88-.23,1.09,1.09,0,0,0,.52-.93,1.72,1.72,0,0,0-.11-.58,7.29,7.29,0,0,0-1.22-2q-.86-1.06-1.6-1.83l-.61-.68A13.61,13.61,0,0,1,262,17.07a6.39,6.39,0,0,1-.78-2.53,2.22,2.22,0,0,1,0-.27,3.18,3.18,0,0,1,.83-2.1,3.6,3.6,0,0,1,2.23-1,12.38,12.38,0,0,1,1.46-.09A10.44,10.44,0,0,1,266.83,11.09Z"/><path class="cls-1" d="M287.23,20.83c0,.16,0,.32,0,.49a8.18,8.18,0,0,0,.14,1.47,5.21,5.21,0,0,0,.73,1.89,2.18,2.18,0,0,0,1.5,1l.36,0a2.44,2.44,0,0,0,1.74-.7A6.87,6.87,0,0,0,293,23.18a5.77,5.77,0,0,0,.25-.58,2.84,2.84,0,0,1,.4-.75.55.55,0,0,1,.47-.21l.22,0a1,1,0,0,1,.72.77,2.56,2.56,0,0,1,.05.54,3.2,3.2,0,0,1-.09.74,5.58,5.58,0,0,1-.38,1.13,6,6,0,0,1-5.43,3.42,6.43,6.43,0,0,1-1.56-.2,5.34,5.34,0,0,1-3.17-2.33,9.27,9.27,0,0,1-1.32-3.89,16.13,16.13,0,0,1-.11-1.83,14.31,14.31,0,0,1,.2-2.39A6.92,6.92,0,0,1,285.77,13a6,6,0,0,1,3.7-1.13,9.08,9.08,0,0,1,1.24.09,5.14,5.14,0,0,1,2.82,1.28,3.52,3.52,0,0,1,1.13,2.8v.16a3.82,3.82,0,0,1-.58,1.85,4.7,4.7,0,0,1-1.34,1.35,8.35,8.35,0,0,1-2.67,1.08A17.38,17.38,0,0,1,287.23,20.83Zm4.85-5.66a1.59,1.59,0,0,0-1.33-.75h-.14a3.33,3.33,0,0,0-1.7.67,3.94,3.94,0,0,0-1.21,1.35,6.76,6.76,0,0,0-.52,1.87,14,14,0,0,0,2.06-.26,6.41,6.41,0,0,0,2.31-.87,1.37,1.37,0,0,0,.72-1.2,2,2,0,0,0-.09-.56Z"/><path class="cls-1" d="M305.7,12.8a7.77,7.77,0,0,1,3.24-.92,3.1,3.1,0,0,1,.84.11,3.45,3.45,0,0,1,2.27,2A12,12,0,0,1,313,18.1q.22,2.52.22,5,0,1.35-.05,2.68a2.65,2.65,0,0,1-.56,1.44,1.28,1.28,0,0,1-1,.49,2.22,2.22,0,0,1-.47-.05,1.2,1.2,0,0,1-.93-1c0-.16,0-.31,0-.47a5.37,5.37,0,0,1,.11-1.06c0-.16,0-.3.05-.43q.11-.84.18-2.52,0-.76,0-1.53,0-.93-.05-1.92a11.35,11.35,0,0,0-.57-3.09q-.46-1.29-1.43-1.42h-.14q-.93,0-2.46,1.58l-.31.32a9.54,9.54,0,0,0-1.78,3.2,11.2,11.2,0,0,0-.57,3.52V23q0,.34,0,.7t0,.7a13,13,0,0,1-.07,1.37,2.76,2.76,0,0,1-.67,1.67,1.8,1.8,0,0,1-1.38.49,5,5,0,0,1-.58,0q-1.53-.27-1.8-1.26a5.5,5.5,0,0,1-.16-1.37,8.28,8.28,0,0,1,.05-.92l0-.83q0-1.44,0-2.84t0-2.8q0-1.53,0-3.07a3,3,0,0,1,.83-2.34,2.12,2.12,0,0,1,1.51-.54,4.26,4.26,0,0,1,.92.11q1,.25,1.15.88a3.48,3.48,0,0,1,.14,1c0,.14,0,.29,0,.43s0,.29,0,.45,0,.14,0,.14h0s.05,0,.09-.07a1.2,1.2,0,0,0,.14-.18l.22-.29a7.44,7.44,0,0,1,.77-.74l0,0A7.12,7.12,0,0,1,305.7,12.8Z"/><path class="cls-1" d="M70.26,34.36a6.33,6.33,0,0,1,2-4.07,10.43,10.43,0,0,1,4.16-2.22,23.64,23.64,0,0,1,5.55-.86q3.06-.13,6.25,0t6.22.29q3,.19,5.42.11a13.37,13.37,0,0,0,3.91-.62,2.22,2.22,0,0,0,1.69-1.82q.11-.64.83-.4a2.89,2.89,0,0,1,1.34,1,3.55,3.55,0,0,1,.7,2A2.77,2.77,0,0,1,107.2,30,6.33,6.33,0,0,1,104,31.14q-2.39.38-5.5.62t-6.51.43q-3.41.19-6.27.59a22.89,22.89,0,0,0-4.8,1.13q-1.93.72-2.09,2-.11.91.27,1.1a4.12,4.12,0,0,0,1.23.29,2.47,2.47,0,0,1-1,1.82,4.16,4.16,0,0,1-2,.7,6.69,6.69,0,0,1-2.47-.27,7.94,7.94,0,0,1-2.36-1.1,5.9,5.9,0,0,1-1.69-1.77A3.5,3.5,0,0,1,70.26,34.36Zm8,13.08,12.28-.8q.48-2.09.88-4T92.13,39q.27-1.58.4-2.68a7.48,7.48,0,0,0,.08-1.53q-.16-.75.94-1.23a5.09,5.09,0,0,1,2.55-.35,6.2,6.2,0,0,1,2.79,1A4.21,4.21,0,0,1,100.66,37a14.35,14.35,0,0,1,.21,4,31.87,31.87,0,0,1-.75,4.88l1.66-.11a1.32,1.32,0,0,1,1,.4,1.39,1.39,0,0,1,.4.88A1.53,1.53,0,0,1,103,48a1.11,1.11,0,0,1-.91.48l-2.68.32A51.83,51.83,0,0,1,97,55.48a49.86,49.86,0,0,1-3.14,6.17,6.05,6.05,0,0,1-1.8,1.93,6.3,6.3,0,0,1-2.14.94,6.71,6.71,0,0,1-2.14.13,5.05,5.05,0,0,1-1.74-.46,1.76,1.76,0,0,1-.91-.88,1.08,1.08,0,0,1,.27-1.13,8.45,8.45,0,0,0,1-1.74q.53-1.21,1.1-2.82t1.13-3.56q.56-2,1.1-4L78.51,51.35a1.18,1.18,0,0,1-.94-.67,3.06,3.06,0,0,1-.4-1.29,2.51,2.51,0,0,1,.21-1.26A1.15,1.15,0,0,1,78.3,47.44Z"/><path class="cls-1" d="M112.61,65.08a9.1,9.1,0,0,1-6-1.8,9.23,9.23,0,0,1-3-4.53,14.74,14.74,0,0,1-.46-6,20.22,20.22,0,0,1,1.74-6.22,17.91,17.91,0,0,1,3.59-5.17,10.28,10.28,0,0,1,5.07-2.87,7.21,7.21,0,0,1,4.18.27,1.44,1.44,0,0,1,.72.7,1.2,1.2,0,0,1,0,1,.78.78,0,0,1-.7.56,3.26,3.26,0,0,0-1,.24,3.38,3.38,0,0,0-1.5,1.37,17,17,0,0,0-1.45,2.65,30.36,30.36,0,0,0-1.29,3.46q-.59,1.9-1.07,3.83-1.23,5-.78,7.34t2.06,2.25q1.66-.05,3.67-2.17a16.63,16.63,0,0,0,3.35-5.71,5.39,5.39,0,0,1-1.5-2,6.78,6.78,0,0,1-.56-2.31,7.87,7.87,0,0,1,.21-2.41,10.33,10.33,0,0,1,.78-2.17,3.88,3.88,0,0,1,1.85-1.85,2.4,2.4,0,0,1,2.23,0,5.31,5.31,0,0,1,1.77,1.55,6.59,6.59,0,0,1,1,2.17,9.13,9.13,0,0,1,.29,2.55,10.09,10.09,0,0,1-.4,2.63,10.88,10.88,0,0,0,2.71-.35q1.37-.35,3.24-1a1.34,1.34,0,0,1,1,.08,1.23,1.23,0,0,1,.64.78,1.19,1.19,0,0,1,0,1,1.42,1.42,0,0,1-.78.7,30.29,30.29,0,0,1-3.67,1.1,14.71,14.71,0,0,1-3.19.35,3.18,3.18,0,0,1-.46,0,3.34,3.34,0,0,0-.46,0,35.41,35.41,0,0,1-2.06,3.67A16.44,16.44,0,0,1,119.79,62a13.16,13.16,0,0,1-3.3,2.25A8.91,8.91,0,0,1,112.61,65.08Z"/><path class="cls-1" d="M129,32.05l6.17-.54q.43-1.23.78-2.17t.62-1.53a5.1,5.1,0,0,1,1.66-2,6,6,0,0,1,2.09-.94,6.7,6.7,0,0,1,2.14-.13,7.33,7.33,0,0,1,1.85.4,3,3,0,0,1,1.13.67q.35.38.08.64a4.18,4.18,0,0,0-.64,1.39q-.38,1.13-.86,2.89l5.9-.54a1.33,1.33,0,0,1,1,.4,1.4,1.4,0,0,1,.4.88,1.53,1.53,0,0,1-.24.91,1.11,1.11,0,0,1-.91.48l-6.92,1q-.59,2.47-1.21,5.33T140.92,45q-.54,2.9-1,5.58t-.67,4.74a25.17,25.17,0,0,0-.21,3.3q0,1.23.4,1.23a1.62,1.62,0,0,0,.88-.29,5.22,5.22,0,0,0,.86-.7A8.64,8.64,0,0,0,142,58a7.53,7.53,0,0,1,.62-.72q.91-1.07,1.72-2.12t1.37-1.88q.56-.83,1.26-1.9a1.35,1.35,0,0,1,2.44.38,1.36,1.36,0,0,1-.13,1s-.17.23-.4.59-.55.83-1,1.42-.89,1.25-1.45,2-1.15,1.47-1.8,2.22q-5,5.74-8.9,5.74a3.23,3.23,0,0,1-2.81-1.42,9.53,9.53,0,0,1-1.42-3.78,25.43,25.43,0,0,1-.32-5.42q.11-3.06.51-6.33t1.07-6.54q.67-3.27,1.37-6l-4.88.7a1.18,1.18,0,0,1-.94-.67,3.1,3.1,0,0,1-.4-1.29,2.53,2.53,0,0,1,.21-1.26A1.15,1.15,0,0,1,129,32.05Z"/><path class="cls-1" d="M155.55,65.08a9.1,9.1,0,0,1-6-1.8,9.23,9.23,0,0,1-3-4.53,14.72,14.72,0,0,1-.46-6,20.14,20.14,0,0,1,1.74-6.22,17.87,17.87,0,0,1,3.59-5.17,10.29,10.29,0,0,1,5.07-2.87,7.21,7.21,0,0,1,4.18.27,1.44,1.44,0,0,1,.72.7,1.19,1.19,0,0,1,0,1,.78.78,0,0,1-.7.56,3.26,3.26,0,0,0-1,.24,3.38,3.38,0,0,0-1.5,1.37,17.3,17.3,0,0,0-1.45,2.65,30.74,30.74,0,0,0-1.29,3.46q-.59,1.9-1.07,3.83-1.23,5-.78,7.34t2.06,2.25q1.66-.05,3.67-2.17a16.62,16.62,0,0,0,3.35-5.71,5.37,5.37,0,0,1-1.5-2,6.85,6.85,0,0,1-.56-2.31,7.9,7.9,0,0,1,.21-2.41,10.28,10.28,0,0,1,.78-2.17,3.88,3.88,0,0,1,1.85-1.85,2.39,2.39,0,0,1,2.22,0,5.31,5.31,0,0,1,1.77,1.55,6.55,6.55,0,0,1,1,2.17,9.13,9.13,0,0,1,.29,2.55,10.13,10.13,0,0,1-.4,2.63,10.88,10.88,0,0,0,2.71-.35q1.37-.35,3.24-1a1.34,1.34,0,0,1,1,.08A1.22,1.22,0,0,1,176,52a1.2,1.2,0,0,1,0,1,1.43,1.43,0,0,1-.78.7,30.35,30.35,0,0,1-3.67,1.1,14.72,14.72,0,0,1-3.19.35,3.18,3.18,0,0,1-.46,0,3.34,3.34,0,0,0-.46,0,35.76,35.76,0,0,1-2.06,3.67A16.51,16.51,0,0,1,162.74,62a13.14,13.14,0,0,1-3.3,2.25A8.91,8.91,0,0,1,155.55,65.08Z"/><path class="cls-1" d="M184.29,78.16a10.61,10.61,0,0,1-2.41-.24,6.84,6.84,0,0,1-1.74-.64,4.84,4.84,0,0,1-1.18-.88,4.78,4.78,0,0,1-.72-1,4.35,4.35,0,0,1-.56-2.76,9,9,0,0,1,1.31-3.3,16.51,16.51,0,0,1,6.43-5.79q.75-.43,1.53-.8t1.63-.7a20.87,20.87,0,0,0,1.37-3.22q.62-1.82,1-3.65a44.39,44.39,0,0,1-2.65,3.62,22.22,22.22,0,0,1-3,3.06A15.1,15.1,0,0,1,182.09,64a7.79,7.79,0,0,1-3.32.78,5.12,5.12,0,0,1-3.48-1.26,6.05,6.05,0,0,1-1.93-3.08,13.31,13.31,0,0,1,.32-7,24.39,24.39,0,0,1,2.73-6.3,23.63,23.63,0,0,1,4.4-5.28,16.18,16.18,0,0,1,4.74-3.22,6.53,6.53,0,0,1,4-.54,4.2,4.2,0,0,1,1.61.88,3.25,3.25,0,0,1,1,1.42,7.11,7.11,0,0,1,.05,4.18,1.18,1.18,0,0,1-.56.86,1.36,1.36,0,0,1-1,.16,1.26,1.26,0,0,1-.88-.56,1.29,1.29,0,0,1-.19-1,9.8,9.8,0,0,0,.21-1q.11-.67-.32-.67a3,3,0,0,0-1.85,1.1,19.42,19.42,0,0,0-2.25,2.79A29.12,29.12,0,0,0,183.21,50a27.9,27.9,0,0,0-1.61,4.1A16.54,16.54,0,0,0,181,57a8.12,8.12,0,0,0,0,2.41,1.43,1.43,0,0,0,.86,1.21q.67.24,1.9-.83a29.69,29.69,0,0,0,3.7-4.07A38.23,38.23,0,0,0,191.9,48v-.16a1.3,1.3,0,0,1,.43-1.15,4.15,4.15,0,0,1,1.42-.94,6.07,6.07,0,0,1,1.9-.46,5.52,5.52,0,0,1,2,.19,3.29,3.29,0,0,1,1.58,1,3.2,3.2,0,0,1,.7,2.06,22.17,22.17,0,0,1-.11,3.08q-.16,1.53-.43,2.84t-.59,2.36q-.32,1-.48,1.69a13.58,13.58,0,0,0,4.66-2.95,49.36,49.36,0,0,0,3.7-4.18,1.38,1.38,0,0,1,.94-.48,1.27,1.27,0,0,1,1,.32,1.19,1.19,0,0,1,.48.88,1.27,1.27,0,0,1-.32,1,37.17,37.17,0,0,1-4.82,5.07,16.47,16.47,0,0,1-6.22,3.3q-.43,1.34-1.15,3.08t-1.66,3.62a36.32,36.32,0,0,1-2.12,3.67A22.19,22.19,0,0,1,190.21,75a13.21,13.21,0,0,1-2.84,2.28A6.06,6.06,0,0,1,184.29,78.16ZM187,65.77a17.53,17.53,0,0,0-3.22,2.12,11.58,11.58,0,0,0-2.47,2.87c-.18.32-.37.71-.59,1.18a5.18,5.18,0,0,0-.43,1.37,2.17,2.17,0,0,0,.05,1.1q.16.43.8.32a3,3,0,0,0,1.69-.91,9.61,9.61,0,0,0,1.39-1.93,23.85,23.85,0,0,0,1.31-2.76Q186.16,67.54,187,65.77Z"/><path class="cls-1" d="M203.16,62.18a9.4,9.4,0,0,0,1.29-2.63,38.24,38.24,0,0,0,1.18-4.16q.54-2.33,1-4.88t.72-4.8q.29-2.25.4-3.94a11.46,11.46,0,0,0,0-2.28.86.86,0,0,1,.43-.88,3.86,3.86,0,0,1,1.37-.62,5.52,5.52,0,0,1,1.82-.13,5.61,5.61,0,0,1,1.88.48,3.45,3.45,0,0,1,1.45,1.23,3.7,3.7,0,0,1,.56,2.12v2.14q0,1-.05,2,.8-1.46,1.77-2.86a16.4,16.4,0,0,1,2.14-2.54,10.58,10.58,0,0,1,2.49-1.81,6.18,6.18,0,0,1,2.87-.67,8.85,8.85,0,0,1,4.21.75,3.6,3.6,0,0,1,1.72,1.89,5,5,0,0,1,.19,2.48q-.21,1.35-.4,2.48a5.67,5.67,0,0,0-.05,1.89q.13.75,1.31.75c.36,0,.5.13.43.38a2.09,2.09,0,0,1-.72.88,10,10,0,0,1-1.61,1,9.64,9.64,0,0,1-2.09.83,7.44,7.44,0,0,1-2.28.24,4.12,4.12,0,0,1-2.14-.7,2.35,2.35,0,0,1-1.1-1.58,6.6,6.6,0,0,1,0-2.14,10.89,10.89,0,0,1,.59-2.31l.78-2.09a12.86,12.86,0,0,0,.48-1.53c.09-.39,0-.59-.24-.59a3,3,0,0,0-1.88,1,18,18,0,0,0-2.2,2.6,34,34,0,0,0-2.17,3.51q-1,1.93-1.85,3.7a2.38,2.38,0,0,1-.75,1.07,34.72,34.72,0,0,1-1.07,4.16,51.06,51.06,0,0,1-1.93,5A5,5,0,0,1,210,63.71a5.55,5.55,0,0,1-2.09,1,6.41,6.41,0,0,1-2.17.11,5.6,5.6,0,0,1-1.82-.51,2.11,2.11,0,0,1-1-.94A1,1,0,0,1,203.16,62.18Z"/><path class="cls-1" d="M236.35,64.75a5.13,5.13,0,0,1-3.49-1.26,6.06,6.06,0,0,1-1.93-3.08,13.32,13.32,0,0,1,.32-7,24.33,24.33,0,0,1,2.73-6.3,23.6,23.6,0,0,1,4.4-5.28,16.17,16.17,0,0,1,4.74-3.22,6.52,6.52,0,0,1,4-.54,4.2,4.2,0,0,1,1.61.88,3.27,3.27,0,0,1,1,1.42,7.11,7.11,0,0,1,.05,4.18,1.18,1.18,0,0,1-.56.86,1.36,1.36,0,0,1-1,.16,1.27,1.27,0,0,1-.88-.56,1.29,1.29,0,0,1-.19-1,9.56,9.56,0,0,0,.21-1q.11-.67-.32-.67a3,3,0,0,0-1.85,1.1A19.42,19.42,0,0,0,243,46.18,29,29,0,0,0,240.8,50a27.91,27.91,0,0,0-1.61,4.1,16.63,16.63,0,0,0-.59,2.9,8.18,8.18,0,0,0,0,2.41,1.43,1.43,0,0,0,.86,1.21q.67.24,1.9-.83a28.17,28.17,0,0,0,3.43-3.7,35.84,35.84,0,0,0,4.07-6.81,3,3,0,0,1,.27-.7,3.61,3.61,0,0,1,.21-.46l.21-.4.16-.21a4.44,4.44,0,0,1,2.65-1.8,8.09,8.09,0,0,1,3-.13,6,6,0,0,1,2.25.75q.86.54.48.91a4.29,4.29,0,0,0-.78,1.47,24.65,24.65,0,0,0-.75,2.49,27.56,27.56,0,0,0-.56,2.92,23.77,23.77,0,0,0-.24,2.81,9,9,0,0,0,.16,2.12q.19.83.67.83a1.62,1.62,0,0,0,.88-.29,5.22,5.22,0,0,0,.86-.7,8.63,8.63,0,0,0,.75-.86,7.52,7.52,0,0,1,.62-.72q.91-1.07,1.71-2.12t1.37-1.88q.56-.83,1.26-1.9a1.35,1.35,0,0,1,2.44.38,1.36,1.36,0,0,1-.13,1s-.17.23-.4.59-.55.83-1,1.42-.89,1.25-1.45,2-1.15,1.47-1.8,2.22q-5,5.74-8.9,5.74a4.81,4.81,0,0,1-2.36-.59,4.22,4.22,0,0,1-1.66-1.61A6.7,6.7,0,0,1,248,60a18.72,18.72,0,0,1-.21-3.56,39.31,39.31,0,0,1-2.57,3.22,21.22,21.22,0,0,1-2.79,2.63,14,14,0,0,1-3,1.8A7.6,7.6,0,0,1,236.35,64.75Z"/><path class="cls-1" d="M266.58,78.05a5.55,5.55,0,0,1-2.14-.11q-2.09-.48-2.89-3.48a30.47,30.47,0,0,1-.86-7.18,64,64,0,0,1,.48-8.5q.54-4.42,1.55-9T265,41q1.29-4.15,2.73-7.64a39.54,39.54,0,0,1,2.89-5.79,6,6,0,0,1,2-2.09,6.54,6.54,0,0,1,4.66-.86,7.4,7.4,0,0,1,1.93.62,4,4,0,0,1,1.21.86c.27.3.31.56.13.78a24.84,24.84,0,0,0-2.92,4.88q-1.42,3-2.68,6.49t-2.31,7.13q-1,3.65-1.74,6.81a6.52,6.52,0,0,0,1.85.27,15.66,15.66,0,0,0,1.85-.11,9.17,9.17,0,0,0,6.59-4.4,1.61,1.61,0,0,1,.94-.54,1.21,1.21,0,0,1,1,.21,1.38,1.38,0,0,1,.54.86,1.16,1.16,0,0,1-.21,1A13.89,13.89,0,0,1,281.38,52a12.91,12.91,0,0,1-2.25,1.66,10.56,10.56,0,0,1-2.2,1,11.69,11.69,0,0,1-2,.43,9.91,9.91,0,0,1-1.93.11l.21.88q.11.46.21,1a21,21,0,0,1,.38,2.76q.11,1.48.11,3.08a30.88,30.88,0,0,1-.75,6.22,24.29,24.29,0,0,1-.83,2.95,12.71,12.71,0,0,1-1.29,2.65,8.79,8.79,0,0,1-1.88,2.09A6.68,6.68,0,0,1,266.58,78.05Zm3.7-22.41q-.91,5.09-1.26,9a26.28,26.28,0,0,0,0,6.25q.11.43.16.67a3.19,3.19,0,0,0,.16.51,19.25,19.25,0,0,0,1.29-4.18,32.83,32.83,0,0,0,.59-5.15,24.37,24.37,0,0,0-.21-4A14.27,14.27,0,0,0,270.28,55.64Z"/><path class="cls-1" d="M284.49,64.75a4.81,4.81,0,0,1-2.36-.59,4.23,4.23,0,0,1-1.66-1.61,7,7,0,0,1-.83-2.63,23.83,23.83,0,0,1-.21-3.7,41.09,41.09,0,0,1,.29-4.29q.27-2.25.62-4.29t.8-3.75a21.43,21.43,0,0,1,.88-2.73,4.57,4.57,0,0,1,2.52-2.63,7,7,0,0,1,3.24-.48,6.5,6.5,0,0,1,2.6.75q1,.59.59,1a5.83,5.83,0,0,0-.88,2q-.51,1.64-1,3.86t-.83,4.72q-.38,2.49-.56,4.61a21.58,21.58,0,0,0-.08,3.48q.11,1.37.59,1.37a1.63,1.63,0,0,0,.88-.29,5.25,5.25,0,0,0,.86-.7,8.77,8.77,0,0,0,.75-.86,7.39,7.39,0,0,1,.62-.72q.91-1.07,1.72-2.12t1.37-1.88q.56-.83,1.26-1.9a1.35,1.35,0,0,1,2.44.38,1.36,1.36,0,0,1-.13,1s-.17.23-.4.59-.55.83-1,1.42-.89,1.25-1.45,2S294,58.27,293.39,59Q288.4,64.76,284.49,64.75Zm1.13-30.4a7.82,7.82,0,0,0,1.26-1.69,16,16,0,0,0,1-2,17.51,17.51,0,0,0,.64-1.93q.24-.91.35-1.5t1.21-.54a7.48,7.48,0,0,1,2.41.43,5.11,5.11,0,0,1,2.06,1.26,1.54,1.54,0,0,1,.21,2A9.11,9.11,0,0,1,292,33.5a30.09,30.09,0,0,1-2.73,1.77,5.94,5.94,0,0,1-2.17.88,2.81,2.81,0,0,1-1.45-.08.77.77,0,0,1-.54-.7A1.39,1.39,0,0,1,285.61,34.36Z"/><path class="cls-1" d="M300,64.75a5.13,5.13,0,0,1-3.49-1.26,6.06,6.06,0,0,1-1.93-3.08,13.32,13.32,0,0,1,.32-7,24.33,24.33,0,0,1,2.73-6.3,23.6,23.6,0,0,1,4.4-5.28,16.17,16.17,0,0,1,4.74-3.22,6.52,6.52,0,0,1,4-.54,4.2,4.2,0,0,1,1.61.88,3.27,3.27,0,0,1,1,1.42,7.11,7.11,0,0,1,.05,4.18,1.18,1.18,0,0,1-.56.86,1.36,1.36,0,0,1-1,.16,1.27,1.27,0,0,1-.88-.56,1.29,1.29,0,0,1-.19-1,9.56,9.56,0,0,0,.21-1q.11-.67-.32-.67a3,3,0,0,0-1.85,1.1,19.42,19.42,0,0,0-2.25,2.79A29,29,0,0,0,304.48,50a27.91,27.91,0,0,0-1.61,4.1,16.63,16.63,0,0,0-.59,2.9,8.18,8.18,0,0,0,0,2.41,1.43,1.43,0,0,0,.86,1.21q.67.24,1.9-.83a28.17,28.17,0,0,0,3.43-3.7,35.84,35.84,0,0,0,4.07-6.81,3,3,0,0,1,.27-.7,3.61,3.61,0,0,1,.21-.46l.21-.4.16-.21a4.44,4.44,0,0,1,2.65-1.8,8.09,8.09,0,0,1,3-.13,6,6,0,0,1,2.25.75q.86.54.48.91A4.29,4.29,0,0,0,321,48.7a24.65,24.65,0,0,0-.75,2.49,27.56,27.56,0,0,0-.56,2.92,23.77,23.77,0,0,0-.24,2.81,9,9,0,0,0,.16,2.12q.19.83.67.83a1.62,1.62,0,0,0,.88-.29,5.22,5.22,0,0,0,.86-.7,8.63,8.63,0,0,0,.75-.86,7.52,7.52,0,0,1,.62-.72q.91-1.07,1.71-2.12t1.37-1.88q.56-.83,1.26-1.9a1.35,1.35,0,0,1,2.44.38,1.36,1.36,0,0,1-.13,1s-.17.23-.4.59-.55.83-1,1.42-.89,1.25-1.45,2-1.15,1.47-1.8,2.22q-5,5.74-8.9,5.74a4.81,4.81,0,0,1-2.36-.59,4.22,4.22,0,0,1-1.66-1.61,6.7,6.7,0,0,1-.86-2.55,18.72,18.72,0,0,1-.21-3.56,39.31,39.31,0,0,1-2.57,3.22,21.22,21.22,0,0,1-2.79,2.63,14,14,0,0,1-3,1.8A7.6,7.6,0,0,1,300,64.75Z"/><path class="cls-1" d="M326.46,60.95a1.17,1.17,0,0,1-.13-1,1.37,1.37,0,0,1,.62-.75,1.6,1.6,0,0,1,1-.19,1.11,1.11,0,0,1,.86.59,4.14,4.14,0,0,0,1.93,1.88,6.14,6.14,0,0,0,2.14.38,3.44,3.44,0,0,0,2.47-1.13,10.18,10.18,0,0,0,2-2.9,18.89,18.89,0,0,0,1.31-3.94,19.57,19.57,0,0,0,.48-4.26,15.23,15.23,0,0,0-.48-3.91A5.9,5.9,0,0,0,337,42.83l-8,11.53a1.19,1.19,0,0,1-.91.54,1.28,1.28,0,0,1-.86-.32,1.47,1.47,0,0,1-.48-.86,1.64,1.64,0,0,1,.16-1.07L334.88,41q-.27-.7-.56-1.34a6.92,6.92,0,0,1-.46-1.34,5.63,5.63,0,0,1-.13-1.47,4.9,4.9,0,0,1,.4-1.69,3.19,3.19,0,0,1,1.34-1.66A3.47,3.47,0,0,1,337.3,33a5.92,5.92,0,0,1,1.9.38,5.78,5.78,0,0,1,1.58.86,2.53,2.53,0,0,1,.83,1q.19.48-.35.75a1.68,1.68,0,0,0-.86.86,3.06,3.06,0,0,0-.27,1.29,4.05,4.05,0,0,0,.27,1.42,4,4,0,0,0,.8,1.31,23.62,23.62,0,0,1,4.88,7.91,13.13,13.13,0,0,1,.62,7.53,10,10,0,0,1-4,5.79q-3.22,2.36-9.06,2.68a7.85,7.85,0,0,1-3.94-.86A7.67,7.67,0,0,1,326.46,60.95Z"/><path class="cls-1" d="M30.39,29.61A15.61,15.61,0,1,0,46,45.22,15.63,15.63,0,0,0,30.39,29.61Zm0,28.74A13.13,13.13,0,1,1,43.51,45.22,13.14,13.14,0,0,1,30.39,58.35Z"/><path class="cls-1" d="M30.39,35.48a9.74,9.74,0,1,0,9.74,9.74A9.75,9.75,0,0,0,30.39,35.48Zm0,17.13a7.39,7.39,0,1,1,7.39-7.39A7.39,7.39,0,0,1,30.39,52.61Z"/><path class="cls-1" d="M56.85,25.09h-16l-1.63-4.45a3.35,3.35,0,0,0-3.14-2.19H24.7a3.35,3.35,0,0,0-3.14,2.19l-1.63,4.45H14.49V23.34a2.55,2.55,0,0,0-2.55-2.55H8.17a2.55,2.55,0,0,0-2.55,2.55v1.74H3.92A3.93,3.93,0,0,0,0,29V61.43a3.93,3.93,0,0,0,3.92,3.92H56.85a3.93,3.93,0,0,0,3.92-3.92V29A3.93,3.93,0,0,0,56.85,25.09Zm1.31,30.37H54.29V35h3.87ZM24,21.54a.73.73,0,0,1,.68-.47H36.08a.73.73,0,0,1,.68.47l1.3,3.55H22.71ZM8.11,23.34a.07.07,0,0,1,.07-.07h3.77a.07.07,0,0,1,.07.07v1.74H8.11ZM2.62,35H6.49V55.46H2.62ZM56.85,62.74H3.92a1.31,1.31,0,0,1-1.31-1.31V58.08H7.8a1.31,1.31,0,0,0,1.31-1.31V33.68A1.31,1.31,0,0,0,7.8,32.37H2.62V29A1.31,1.31,0,0,1,3.92,27.7H56.85A1.31,1.31,0,0,1,58.16,29v3.36H53a1.31,1.31,0,0,0-1.31,1.31V56.77A1.31,1.31,0,0,0,53,58.08h5.18v3.36A1.31,1.31,0,0,1,56.85,62.74Z"/><path class="cls-1" d="M30.39,40.41a4.82,4.82,0,0,0-4.81,4.81,1.18,1.18,0,0,0,2.35,0,2.46,2.46,0,0,1,2.46-2.46,1.18,1.18,0,1,0,0-2.35Z"/></g></g></svg>