<?xml version="1.0" encoding="UTF-8" standalone="no"?>
<svg
  xmlns:dc="http://purl.org/dc/elements/1.1/"
  xmlns:cc="http://creativecommons.org/ns#"
  xmlns:rdf="http://www.w3.org/1999/02/22-rdf-syntax-ns#"
  xmlns="http://www.w3.org/2000/svg"
  version="1.1"
  id="svg2"
  viewBox="0 0 354.33071 354.33071"
  height="10cm"
  width="10cm">
  <defs
    id="defs4"/>
  <metadata
    id="metadata7">
    <rdf:RDF>
      <cc:Work
        rdf:about="">
        <dc:format>image/svg+xml</dc:format>
        <dc:type
          rdf:resource="http://purl.org/dc/dcmitype/StillImage"/>
        <dc:title></dc:title>
      </cc:Work>
    </rdf:RDF>
  </metadata>
  <g
    transform="translate(0,-698.03146)"
    style="display:none"
    id="layer2">
    <rect
      y="698.80884"
      x="-1.0101827"
      height="352.23892"
      width="356.80579"
      id="rect4157"
      style="fill:#000000"/>
  </g>
  <g
    transform="translate(0,-698.03146)"
    style="display:inline"
    id="layer1">
    <path
      id="path3349"
      d="m 308.75548,818.93637 c 13.67351,32.16459 11.05957,99.48637 -7.77649,143.54894 -12.23571,28.62261 -34.26077,56.82249 -63.91552,68.08449 -29.65474,11.262 -79.78462,5.2016 -112.61046,-13.5575 C 84.045736,993.92073 42.709414,952.49711 39.706371,906.05414 36.172247,851.39782 49.450347,792.27334 121.79314,763.71658 191.20187,736.318 283.33269,759.13366 308.75548,818.93637 Z"
      style="fill:#ffffff;fill-rule:evenodd;stroke:#ffffff;stroke-width:1.70657063px;stroke-linecap:butt;stroke-linejoin:miter;stroke-opacity:1"/>
    <path
      id="path4151"
      d="m 265.13395,1006.6343 23.1588,10.8659 -32.28626,5.1659 -5.06221,-0.036 -32.06181,26.0056 4.18315,-19.3398 z"
      style="fill:#ffffff;fill-rule:evenodd;stroke:#ffffff;stroke-width:1.28896141px;stroke-linecap:butt;stroke-linejoin:miter;stroke-opacity:1"/>
    <path
      id="path4153"
      d="M 93.725522,743.88083 C 156.0886,678.58404 308.32703,709.32246 320.20872,791.62849 250.45751,715.96366 151.77169,723.67581 93.725522,743.88083 Z"
      style="fill:#ffffff;fill-rule:evenodd;stroke:#ffffff;stroke-width:0.82643497px;stroke-linecap:butt;stroke-linejoin:miter;stroke-opacity:1"/>
    <path
      id="path4155"
      d="M 131.48189,778.88813 C 119.99438,761.03033 95.168936,746.03638 64.744552,733.17309 l 6.809915,-5.30029 c 35.356153,17.39279 48.577543,20.53863 72.866293,49.69027 z"
      style="fill:#ffffff;fill-rule:evenodd;stroke:#ffffff;stroke-width:0.66495097px;stroke-linecap:butt;stroke-linejoin:miter;stroke-opacity:1"/>
  </g>
</svg>
